<?xml version="1.0" encoding="UTF-8" standalone="no"?>
<!-- Created with Inkscape (http://www.inkscape.org/) -->

<svg
   width="210mm"
   height="297mm"
   viewBox="0 0 210 297"
   version="1.1"
   id="svg1"
   xml:space="preserve"
   inkscape:version="1.3 (0e150ed6c4, 2023-07-21)"
   sodipodi:docname="logo.svg"
   xmlns:inkscape="http://www.inkscape.org/namespaces/inkscape"
   xmlns:sodipodi="http://sodipodi.sourceforge.net/DTD/sodipodi-0.dtd"
   xmlns="http://www.w3.org/2000/svg"
   xmlns:svg="http://www.w3.org/2000/svg"><sodipodi:namedview
     id="namedview1"
     pagecolor="#ffffff"
     bordercolor="#000000"
     borderopacity="0.25"
     inkscape:showpageshadow="2"
     inkscape:pageopacity="0.0"
     inkscape:pagecheckerboard="0"
     inkscape:deskcolor="#d1d1d1"
     inkscape:document-units="mm"
     inkscape:zoom="1.2596661"
     inkscape:cx="137.73491"
     inkscape:cy="706.53644"
     inkscape:window-width="2736"
     inkscape:window-height="1714"
     inkscape:window-x="-12"
     inkscape:window-y="-12"
     inkscape:window-maximized="1"
     inkscape:current-layer="layer1" /><defs
     id="defs1" /><g
     inkscape:label="Capa 1"
     inkscape:groupmode="layer"
     id="layer1"><path
       style="fill:#000000"
       d="m 105.30358,185.93876 c -1.82879,-2.69202 -3.32507,-5.05838 -3.32507,-5.25859 0,-0.29936 4.87697,-10.687 5.1419,-10.95193 0.088,-0.088 10.39356,-0.84511 11.58944,-0.85147 0.6457,-0.003 1.06955,0.51326 3.91731,4.77533 1.75629,2.62855 3.25002,4.9271 3.3194,5.10789 0.0694,0.18079 -1.06384,2.79266 -2.51826,5.80415 -2.2937,4.74929 -2.72468,5.47594 -3.2497,5.47919 -0.33291,0.002 -2.98655,0.17971 -5.89697,0.39478 -2.91041,0.21506 -5.37296,0.39197 -5.47232,0.39313 -0.0994,0.001 -1.67694,-2.20046 -3.50573,-4.89248 z m 8.97805,3.82028 c 2.47386,-0.15773 4.8659,-0.33956 5.31565,-0.40407 0.77348,-0.11095 0.9504,-0.39042 3.27015,-5.1659 1.77922,-3.66275 2.38999,-5.17081 2.22498,-5.49374 -0.12509,-0.24482 -1.56395,-2.42894 -3.19746,-4.85361 -2.9393,-4.36289 -2.97898,-4.40727 -3.83646,-4.29023 -1.03081,0.1407 -8.64742,0.64434 -9.74442,0.64434 -0.6443,0 -0.84775,0.17876 -1.27981,1.12448 -0.28254,0.61847 -1.41152,2.95641 -2.50883,5.19542 l -1.99511,4.07094 3.19857,4.72646 c 1.92336,2.84212 3.36925,4.7277 3.6267,4.72957 0.23547,0.002 2.45219,-0.12593 4.92604,-0.28366 z m -26.094927,-8.89269 c -0.22998,-0.26623 -0.930276,-1.25796 -1.556214,-2.20385 -0.625938,-0.94588 -1.170801,-1.76103 -1.210807,-1.81144 -0.04001,-0.0504 -0.627604,0.29011 -1.305775,0.7567 -1.349901,0.92876 -1.319715,0.93942 -2.419339,-0.85418 l -0.764798,-1.24746 -2.109486,1.38321 c -1.454396,0.95366 -2.136007,1.56903 -2.194888,1.98158 -0.04697,0.32911 -0.374393,0.78773 -0.727604,1.01916 -0.588417,0.38555 -0.6976,0.38449 -1.303661,-0.0126 -1.271913,-0.83339 -0.427252,-2.80208 1.043815,-2.43287 0.5246,0.13167 1.149572,-0.14599 2.907127,-1.29156 1.231375,-0.8026 2.351793,-1.45928 2.489817,-1.45928 0.138025,0 0.632965,0.59531 1.099867,1.32292 0.466902,0.7276 0.925799,1.32232 1.019769,1.3216 0.09397,-7.2e-4 0.523723,-0.28365 0.955006,-0.62872 l 0.784149,-0.62741 -1.660523,-2.51825 -1.660523,-2.51825 1.339394,-2.66905 c 0.736667,-1.46798 1.339395,-2.77001 1.339395,-2.89339 0,-0.2215 -3.66944,-1.1082 -4.586057,-1.1082 -0.260108,0 -1.473011,0.68461 -2.695338,1.52135 -1.573951,1.07745 -2.225506,1.6831 -2.23301,2.07566 -0.03189,1.66844 -2.443648,1.84798 -2.605152,0.19394 -0.09605,-0.98365 0.755885,-1.7474 1.68814,-1.51342 0.41301,0.10366 1.134135,-0.21942 2.464903,-1.10432 1.034603,-0.68797 1.881097,-1.33061 1.881097,-1.42809 0,-0.0975 -1.117086,-0.38764 -2.482414,-0.64479 l -2.482413,-0.46756 -2.141836,1.41122 c -1.17801,0.77617 -2.144518,1.60113 -2.147796,1.83323 -0.01523,1.07875 -1.707106,1.6755 -2.500602,0.88201 -0.527706,-0.52771 -0.524071,-0.89937 0.01635,-1.67092 0.358188,-0.51139 0.591367,-0.5911 1.362888,-0.4659 0.815469,0.13233 1.195704,-0.0315 3.069515,-1.32223 l 2.138748,-1.47327 5.560344,1.12112 c 3.05819,0.61661 5.701112,1.17473 5.87316,1.24027 0.278548,0.1061 2.200727,-3.56797 2.200727,-4.20649 0,-0.13172 -0.765489,-1.36064 -1.701086,-2.73093 -0.935598,-1.37029 -1.823916,-2.70426 -1.974042,-2.96439 -0.253862,-0.43987 -0.386234,-0.41124 -1.892491,0.40934 -0.890745,0.48526 -1.652359,0.84245 -1.692474,0.79375 -0.04012,-0.0487 -1.143735,-1.69604 -2.452486,-3.66077 -2.016799,-3.02767 -2.516633,-3.61251 -3.278797,-3.83646 -0.712795,-0.20944 -0.917077,-0.41994 -0.985228,-1.01523 -0.09734,-0.85024 0.574882,-1.76254 1.298711,-1.76254 0.763087,0 1.319428,0.76342 1.254874,1.72195 -0.04771,0.70847 0.365386,1.51804 2.147156,4.20786 1.21343,1.83184 2.306832,3.33061 2.429783,3.33061 0.122951,0 0.818065,-0.36581 1.544698,-0.81291 0.726633,-0.4471 1.42244,-0.75032 1.546236,-0.6738 0.123797,0.0765 1.213532,1.6313 2.421632,3.45509 1.835232,2.77053 2.288773,3.29711 2.757218,3.20124 0.834379,-0.17074 11.017343,-0.75762 11.110559,-0.64034 0.04412,0.0555 1.587209,2.34487 3.429089,5.08746 l 3.34888,4.98653 -2.66629,5.48778 -2.66629,5.48778 -4.939301,0.31829 c -2.71662,0.17505 -5.418304,0.38241 -6.003742,0.46078 -0.823443,0.11025 -1.159103,0.0329 -1.48258,-0.34155 z m 6.619245,-0.74745 c 2.967331,-0.2115 5.423232,-0.41735 5.457562,-0.45745 0.0343,-0.0401 1.1605,-2.35083 2.50261,-5.13497 l 2.44021,-5.06206 -3.25404,-4.78838 -3.254041,-4.78838 -0.939558,0.118 c -0.516757,0.0649 -3.069303,0.25842 -5.672325,0.43004 l -4.732768,0.31204 -2.494646,5.11784 c -1.48662,3.04985 -2.414085,5.25273 -2.295275,5.45166 1.26168,2.11244 6.29749,9.196 6.53457,9.19177 0.171904,-0.003 2.740369,-0.17861 5.707701,-0.39011 z m -19.094784,-0.95947 c 0.411092,-0.4111 0.121072,-1.0261 -0.483882,-1.0261 -0.309292,0 -0.500859,0.18553 -0.500859,0.48507 0,0.81422 0.459239,1.06653 0.984741,0.54103 z m -1.778491,-11.06465 c 0,-0.66706 -0.45365,-0.93683 -0.921905,-0.54821 -0.481747,0.39981 -0.219249,1.06176 0.421046,1.06176 0.319394,0 0.500859,-0.18606 0.500859,-0.51355 z m -5.820834,-1.87395 c 0,-0.26335 -0.148828,-0.53073 -0.330729,-0.59418 -0.535745,-0.18688 -0.992188,0.0922 -0.992188,0.60669 0,0.26335 0.148829,0.53073 0.33073,0.59418 0.535744,0.18688 0.992187,-0.0922 0.992187,-0.60669 z M 74.46184,147.1927 c 0,-0.28246 -0.129437,-0.59355 -0.287637,-0.69132 -0.404572,-0.25004 -0.872792,0.2926 -0.681841,0.79021 0.2268,0.59103 0.969478,0.51527 0.969478,-0.0989 z m 49.70682,26.12597 c -1.76933,-2.64806 -3.26984,-5.01685 -3.33447,-5.26397 -0.0646,-0.24712 1.03975,-2.83521 2.45417,-5.75131 l 2.57166,-5.30199 1.61914,-0.14259 c 3.07745,-0.271 9.04814,-0.68589 9.87067,-0.68589 0.77461,0 1.02279,0.29266 4.03068,4.75302 1.76289,2.61417 3.26779,4.916 3.34423,5.1152 0.0764,0.19919 -1.04941,2.82283 -2.5019,5.83031 l -2.64087,5.46813 -0.87621,0.008 c -0.48191,0.004 -3.07886,0.17935 -5.771,0.38934 -2.69213,0.20999 -5.04202,0.38519 -5.22196,0.38934 -0.17994,0.004 -1.77481,-2.15906 -3.54414,-4.80713 z m 9.92078,3.63409 c 2.74512,-0.20852 5.02346,-0.41515 5.06298,-0.45917 0.13171,-0.14675 2.941,-5.87087 3.95085,-8.05014 l 0.99595,-2.14926 -3.20022,-4.78959 c -3.01305,-4.50946 -3.24282,-4.7826 -3.92858,-4.67011 -0.4006,0.0657 -2.87149,0.25444 -5.49087,0.41938 -2.61937,0.16493 -4.86608,0.36224 -4.99269,0.43845 -0.32401,0.19506 -4.92482,9.63929 -4.93111,10.12226 -0.003,0.21829 1.38124,2.45071 3.07574,4.96094 2.6812,3.97194 3.17081,4.56356 3.77386,4.56021 0.38112,-0.002 2.93896,-0.17446 5.68409,-0.38297 z M 103.95976,163.6269 c -1.82202,-2.71724 -4.37069,-6.56241 -5.663706,-8.54482 l -2.350938,-3.60438 -2.318648,-0.43009 c -1.275256,-0.23656 -2.334904,-0.46006 -2.354772,-0.49667 -0.01987,-0.0366 -0.519065,-0.84047 -1.109326,-1.78636 -0.590262,-0.94588 -1.330175,-2.15366 -1.644252,-2.68395 -0.466725,-0.78803 -0.947954,-1.1161 -2.634176,-1.79582 -1.897673,-0.76495 -2.121487,-0.80137 -2.790839,-0.4541 -0.916195,0.47532 -1.71543,0.27674 -2.076612,-0.51596 -0.376107,-0.82547 0.339964,-1.9585 1.237758,-1.9585 0.611363,0 1.468008,0.60652 1.468008,1.03938 0,0.1143 1.007361,0.59728 2.23858,1.07327 1.231219,0.476 2.401519,1.05858 2.600667,1.29463 0.199147,0.23605 1.033172,1.50716 1.853387,2.8247 l 1.4913,2.39553 1.596575,0.26404 c 0.878117,0.14523 1.596575,0.21588 1.596575,0.15701 0,-0.0589 -0.3248,-0.68484 -0.721778,-1.39104 -0.521529,-0.92778 -0.905207,-1.30562 -1.382932,-1.36191 -0.377165,-0.0444 -0.792698,-0.3432 -0.967402,-0.69555 -0.699602,-1.41098 0.599341,-2.62803 1.897228,-1.77762 0.576315,0.37762 0.675644,0.6046 0.566405,1.2943 -0.09361,0.59103 0.06604,1.18565 0.54425,2.02701 0.698234,1.22848 5.251658,8.15037 5.638388,8.57122 0.11971,0.13026 1.27884,-1.96484 2.57585,-4.65577 2.64339,-5.4843 2.34442,-5.20171 5.57525,-5.26967 0.81856,-0.0172 1.82516,-0.10651 2.2369,-0.19844 l 0.74861,-0.16713 -2.95758,-4.49792 c -1.62667,-2.47385 -3.05608,-4.60223 -3.17647,-4.72973 -0.12186,-0.12905 -1.52377,0.67041 -3.16247,1.80345 -1.61896,1.11939 -3.050769,1.99761 -3.18179,1.9516 -0.13102,-0.046 -0.694201,-0.7385 -1.251512,-1.53886 -0.627145,-0.90065 -1.239455,-1.48775 -1.606763,-1.54061 -0.326408,-0.047 -0.782823,-0.37439 -1.014256,-0.7276 -0.385546,-0.58842 -0.384489,-0.6976 0.01262,-1.30367 0.294754,-0.44985 0.675018,-0.66145 1.188658,-0.66145 0.961263,0 1.45143,0.58741 1.268216,1.51983 -0.17578,0.89459 1.265066,3.35256 1.83667,3.13322 0.438597,-0.16831 4.288247,-2.72632 4.908807,-3.2618 0.41135,-0.35496 0.28751,-0.62465 -1.56218,-3.40193 -1.59542,-2.39549 -2.1348,-3.01641 -2.62028,-3.01641 -1.033911,0 -1.51877,-1.45461 -0.743328,-2.23006 0.993968,-0.99397 2.598888,-0.0294 2.343768,1.40862 -0.0983,0.55415 0.93458,2.29592 5.2726,8.89123 l 5.39486,8.20209 2.63745,-0.0955 2.63744,-0.0955 3.3899,5.04332 3.3899,5.04333 -2.75283,5.50323 -2.75282,5.50323 -3.96875,0.30052 c -2.18281,0.16529 -4.89096,0.36443 -6.0181,0.44253 l -2.04935,0.14201 z m 9.87121,3.79335 c 2.66255,-0.2109 4.92474,-0.43658 5.02709,-0.5015 0.10234,-0.0649 1.30371,-2.36822 2.66971,-5.11845 l 2.48363,-5.00041 -3.22626,-4.82856 -3.22626,-4.82857 -1.37404,0.15206 c -1.60798,0.17796 -8.50306,0.67337 -9.39362,0.67494 -0.53257,9.3e-4 -0.93266,0.6684 -3.1086,5.18611 -1.37355,2.85178 -2.4171,5.32232 -2.319,5.49011 0.0981,0.16778 1.53452,2.29936 3.19204,4.73683 2.64906,3.89559 3.09961,4.43112 3.72399,4.42634 0.39068,-0.003 2.88877,-0.178 5.55132,-0.3889 z M 93.687569,146.49784 c 0.08752,-0.22806 0.02929,-0.54449 -0.129382,-0.70316 -0.382018,-0.38202 -1.130107,0.21453 -0.928353,0.74029 0.193549,0.50438 0.858901,0.48102 1.057735,-0.0371 z m -10.759062,-3.72299 c 0,-0.49825 -0.752473,-0.77196 -1.117821,-0.40661 -0.20828,0.20828 -0.197956,0.3976 0.03713,0.68086 0.377964,0.45542 1.080692,0.27708 1.080691,-0.27425 z m 14.237718,-5.9857 c 0.06047,-0.314 -0.08056,-0.45998 -0.444368,-0.45998 -0.606782,0 -0.942811,0.39516 -0.68742,0.8084 0.257512,0.41666 1.030259,0.17877 1.131788,-0.34842 z m 4.166515,-7.84293 c -0.0986,-0.15948 -0.41031,-0.28997 -0.69276,-0.28997 -0.57928,0 -0.729505,0.93417 -0.18283,1.13685 0.43932,0.16288 1.10295,-0.479 0.87559,-0.84688 z m 24.12543,26.12577 c -0.36316,-0.4859 -1.93394,-2.80329 -3.49064,-5.14976 l -2.83036,-4.26631 1.07796,-2.14396 c 0.59288,-1.17918 1.07796,-2.26827 1.07796,-2.42021 0,-0.51857 -5.84477,-9.02182 -6.29652,-9.16046 -0.95032,-0.29166 -1.24698,-0.57445 -1.32937,-1.26721 -0.11055,-0.92955 0.36326,-1.47866 1.27589,-1.47866 0.95464,0 1.41295,0.58954 1.26134,1.62252 -0.10033,0.68363 0.13839,1.21213 1.32676,2.93729 l 1.44911,2.10367 1.28869,-2.98543 c 0.70878,-1.64199 1.28869,-3.08317 1.28869,-3.20262 0,-0.11946 -0.55632,-1.05382 -1.23627,-2.07637 l -1.23627,-1.85917 0.54174,-3.49547 c 0.46134,-2.9767 0.48774,-3.55746 0.17793,-3.91317 -0.59041,-0.6779 -0.4468,-1.76467 0.29766,-2.25246 0.61274,-0.40148 0.71017,-0.40148 1.32292,0 0.83997,0.55037 0.86976,1.61996 0.0661,2.37524 -0.48141,0.45246 -0.69163,1.17915 -1.09877,3.79822 l -0.50345,3.23872 1.27515,1.91766 c 0.70134,1.05471 1.27388,2.03807 1.27231,2.18524 -0.002,0.14717 -0.6734,1.79638 -1.49295,3.6649 l -1.4901,3.39731 1.06184,1.56362 c 0.58401,0.86 1.14959,1.56363 1.25685,1.56363 0.10725,0 0.75113,-1.11953 1.43084,-2.48783 1.20398,-2.42373 1.26347,-2.49251 2.30867,-2.66909 0.59006,-0.0997 1.07284,-0.21577 1.07284,-0.25795 0,-0.0713 1.19012,-5.92716 1.46085,-7.18798 0.0802,-0.37348 1.12863,-1.1973 3.10047,-2.43624 2.23624,-1.40506 3.07829,-2.08919 3.37618,-2.74299 0.68462,-1.50257 2.64584,-1.15814 2.64584,0.46467 0,0.86824 -1.12957,1.60955 -1.91709,1.25815 -0.47947,-0.21395 -0.99895,0.007 -3.09977,1.3169 -1.38807,0.86565 -2.71961,1.76861 -2.95897,2.00657 -0.41537,0.41295 -1.99922,7.08228 -1.74281,7.33869 0.065,0.065 1.71273,-0.003 3.66163,-0.15214 6.11577,-0.46653 5.47563,-0.65168 7.27973,2.10551 0.85547,1.3074 1.69104,2.37896 1.85682,2.38125 0.16578,0.002 0.56683,-0.21077 0.89122,-0.47345 l 0.5898,-0.47759 -1.21103,-1.88933 -1.21103,-1.88932 0.73946,-0.60965 c 0.4067,-0.3353 1.53015,-1.17257 2.49655,-1.8606 1.16713,-0.83094 1.70784,-1.37929 1.61041,-1.63319 -0.18721,-0.48787 0.7939,-1.48147 1.46284,-1.48147 0.69753,0 1.34182,0.7006 1.34182,1.4591 0,0.78021 -0.95642,1.48697 -1.74455,1.28917 -0.43181,-0.10838 -1.15955,0.25202 -2.72768,1.35084 -2.41136,1.68968 -2.36018,1.34823 -0.61378,4.09461 0.84751,1.33279 0.88309,1.46837 0.45139,1.71979 -0.25775,0.15012 -0.75232,0.51107 -1.09904,0.80211 l -0.6304,0.52917 1.4806,2.20333 1.48059,2.20333 -2.69247,5.49715 -2.69248,5.49715 -5.19724,0.31923 c -2.85848,0.17558 -5.57004,0.38213 -6.0257,0.45901 -0.70881,0.11959 -0.92384,0.0122 -1.48875,-0.74367 z m 7.18406,-0.35027 c 2.82228,-0.214 5.15103,-0.4215 5.17499,-0.46113 0.024,-0.0396 1.15411,-2.35163 2.51144,-5.13779 l 2.46788,-5.06574 -2.98189,-4.45926 c -1.64004,-2.45259 -3.1148,-4.60331 -3.27724,-4.77937 -0.23092,-0.25028 -1.39214,-0.23669 -5.32244,0.0623 -2.7649,0.21032 -5.30275,0.38414 -5.63968,0.38626 -0.53346,0.003 -0.93541,0.67302 -3.11159,5.18406 -1.37445,2.84911 -2.41594,5.31966 -2.31441,5.4901 0.10153,0.17045 1.53969,2.3042 3.19592,4.74167 2.35363,3.46385 3.13737,4.43136 3.58846,4.42988 0.31742,-10e-4 2.88627,-0.17698 5.70856,-0.39097 z m -17.16997,-24.21339 c 0,-0.35278 -0.17639,-0.52916 -0.52917,-0.52916 -0.35277,0 -0.52916,0.17638 -0.52916,0.52916 0,0.35278 0.17639,0.52917 0.52916,0.52917 0.35278,0 0.52917,-0.17639 0.52917,-0.52917 z M 146.11619,129.76 c 0.0629,-0.42723 -0.0519,-0.57458 -0.44741,-0.57458 -0.69636,0 -0.95698,0.45155 -0.54625,0.94644 0.42964,0.51769 0.888,0.34615 0.99366,-0.37186 z m -9.78844,-7.27804 c 0.10404,-0.53646 -0.66984,-0.88802 -1.07123,-0.48664 -0.20828,0.20828 -0.19229,0.40443 0.0575,0.7054 0.41317,0.49784 0.89492,0.39388 1.01373,-0.21876 z m -15.0824,-5.26894 c -0.0465,-0.32742 -0.26314,-0.59531 -0.48142,-0.59531 -0.21828,0 -0.43492,0.26789 -0.48143,0.59531 -0.0651,0.45818 0.0458,0.59531 0.48143,0.59531 0.43559,0 0.54649,-0.13713 0.48142,-0.59531 z"
       id="path1"
       sodipodi:nodetypes="ssscssscscsssssssssscscsssssscsssssssssscccsssssssssscsssssccsssssssssssssssssssscccssssssscccsscsscssssssssssssssssssscsscsssssccscccssscsssscscssscsssssssssssscssscsssssssscssssssssssssssssscccccccsscsssscccsssssssssssssssssssssssscscssssssscssscsssssscscscsssssssssscsscscscccsssssssssscccccssccscscssscssscssssssssssssssssssss" /></g></svg>
