  0
SECTION
  2
HEADER
  9
$ACADVER
  1
AC1014
  9
$HANDSEED
  5
FFFF
  9
$INSUNITS
 70
     4
  9
$MEASUREMENT
 70
     1
  0
ENDSEC
  0
SECTION
  2
TABLES
  0
TABLE
  2
VPORT
  5
8
330
0
100
AcDbSymbolTable
 70
     4
  0
VPORT
  5
2E
330
8
100
AcDbSymbolTableRecord
100
AcDbViewportTableRecord
  2
*ACTIVE
 70
     0
 10
0.0
 20
0.0
 11
1.0
 21
1.0
 12
210.0
 22
148.5
 13
0.0
 23
0.0
 14
10.0
 24
10.0
 15
10.0
 25
10.0
 16
0.0
 26
0.0
 36
1.0
 17
0.0
 27
0.0
 37
0.0
 40
341.0
 41
1.24
 42
50.0
 43
0.0
 44
0.0
 50
0.0
 51
0.0
 71
     0
 72
   100
 73
     1
 74
     3
 75
     0
 76
     0
 77
     0
 78
     0
  0
ENDTAB
  0
TABLE
  2
LTYPE
  5
5
330
0
100
AcDbSymbolTable
 70
     1
  0
LTYPE
  5
14
330
5
100
AcDbSymbolTableRecord
100
AcDbLinetypeTableRecord
  2
BYBLOCK
 70
     0
  3

 72
    65
 73
     0
 40
0.0
  0
LTYPE
  5
15
330
5
100
AcDbSymbolTableRecord
100
AcDbLinetypeTableRecord
  2
BYLAYER
 70
     0
  3

 72
    65
 73
     0
 40
0.0
  0
LTYPE
  5
16
330
5
100
AcDbSymbolTableRecord
100
AcDbLinetypeTableRecord
  2
CONTINUOUS
 70
     0
  3
Solid line
 72
    65
 73
     0
 40
0.0
  0
ENDTAB
  0
TABLE
  2
LAYER
  5
2
100
AcDbSymbolTable
 70
2
  0
LAYER
  5
50
100
AcDbSymbolTableRecord
100
AcDbLayerTableRecord
  2
0
 70
0
  6
CONTINUOUS
  0
LAYER
  5
51
100
AcDbSymbolTableRecord
100
AcDbLayerTableRecord
  2
Capa_1
 70
0
  6
CONTINUOUS
  0
ENDTAB
  0
TABLE
  2
STYLE
  5
3
330
0
100
AcDbSymbolTable
 70
     1
  0
STYLE
  5
11
330
3
100
AcDbSymbolTableRecord
100
AcDbTextStyleTableRecord
  2
STANDARD
 70
     0
 40
0.0
 41
1.0
 50
0.0
 71
     0
 42
2.5
  3
txt
  4

  0
ENDTAB
  0
TABLE
  2
VIEW
  5
6
330
0
100
AcDbSymbolTable
 70
     0
  0
ENDTAB
  0
TABLE
  2
UCS
  5
7
330
0
100
AcDbSymbolTable
 70
     0
  0
ENDTAB
  0
TABLE
  2
APPID
  5
9
330
0
100
AcDbSymbolTable
 70
     2
  0
APPID
  5
12
330
9
100
AcDbSymbolTableRecord
100
AcDbRegAppTableRecord
  2
ACAD
 70
     0
  0
ENDTAB
  0
TABLE
  2
DIMSTYLE
  5
A
330
0
100
AcDbSymbolTable
 70
     1
  0
DIMSTYLE
105
27
330
A
100
AcDbSymbolTableRecord
100
AcDbDimStyleTableRecord
  2
ISO-25
 70
     0
  3

  4

  5

  6

  7

 40
1.0
 41
2.5
 42
0.625
 43
3.75
 44
1.25
 45
0.0
 46
0.0
 47
0.0
 48
0.0
140
2.5
141
2.5
142
0.0
143
0.03937007874016
144
1.0
145
0.0
146
1.0
147
0.625
 71
     0
 72
     0
 73
     0
 74
     0
 75
     0
 76
     0
 77
     1
 78
     8
170
     0
171
     3
172
     1
173
     0
174
     0
175
     0
176
     0
177
     0
178
     0
270
     2
271
     2
272
     2
273
     2
274
     3
340
11
275
     0
280
     0
281
     0
282
     0
283
     0
284
     8
285
     0
286
     0
287
     3
288
     0
  0
ENDTAB
  0
TABLE
  2
BLOCK_RECORD
  5
1
330
0
100
AcDbSymbolTable
 70
     1
  0
BLOCK_RECORD
  5
1F
330
1
100
AcDbSymbolTableRecord
100
AcDbBlockTableRecord
  2
*MODEL_SPACE
  0
BLOCK_RECORD
  5
1B
330
1
100
AcDbSymbolTableRecord
100
AcDbBlockTableRecord
  2
*PAPER_SPACE
  0
ENDTAB
  0
ENDSEC
  0
SECTION
  2
BLOCKS
  0
BLOCK
  5
20
330
1F
100
AcDbEntity
  8
0
100
AcDbBlockBegin
  2
*MODEL_SPACE
 70
     0
 10
0.0
 20
0.0
 30
0.0
  3
*MODEL_SPACE
  1

  0
ENDBLK
  5
21
330
1F
100
AcDbEntity
  8
0
100
AcDbBlockEnd
  0
BLOCK
  5
1C
330
1B
100
AcDbEntity
 67
     1
  8
0
100
AcDbBlockBegin
  2
*PAPER_SPACE
  1

  0
ENDBLK
  5
1D
330
1B
100
AcDbEntity
 67
     1
  8
0
100
AcDbBlockEnd
  0
ENDSEC
  0
SECTION
  2
ENTITIES
  0
SPLINE
  5
100
100
AcDbEntity
  8
Capa_1
 62
7
100
AcDbSpline
 70
8
 71
3
 72
8
 73
4
 74
0
 40
0
 40
0
 40
0
 40
0
 40
1
 40
1
 40
1
 40
1
 10
105.303580
 20
111.061240
 30
0.0
 10
103.474790
 20
113.753260
 30
0.0
 10
101.978510
 20
116.119620
 30
0.0
 10
101.978510
 20
116.319830
 30
0.0
  0
SPLINE
  5
101
100
AcDbEntity
  8
Capa_1
 62
7
100
AcDbSpline
 70
8
 71
3
 72
8
 73
4
 74
0
 40
0
 40
0
 40
0
 40
0
 40
1
 40
1
 40
1
 40
1
 10
101.978510
 20
116.319830
 30
0.0
 10
101.978510
 20
116.619190
 30
0.0
 10
106.855480
 20
127.006830
 30
0.0
 10
107.120410
 20
127.271760
 30
0.0
  0
SPLINE
  5
102
100
AcDbEntity
  8
Capa_1
 62
7
100
AcDbSpline
 70
8
 71
3
 72
8
 73
4
 74
0
 40
0
 40
0
 40
0
 40
0
 40
1
 40
1
 40
1
 40
1
 10
107.120410
 20
127.271760
 30
0.0
 10
107.208410
 20
127.359760
 30
0.0
 10
117.513970
 20
128.116870
 30
0.0
 10
118.709850
 20
128.123230
 30
0.0
  0
SPLINE
  5
103
100
AcDbEntity
  8
Capa_1
 62
7
100
AcDbSpline
 70
8
 71
3
 72
8
 73
4
 74
0
 40
0
 40
0
 40
0
 40
0
 40
1
 40
1
 40
1
 40
1
 10
118.709850
 20
128.123230
 30
0.0
 10
119.355550
 20
128.126230
 30
0.0
 10
119.779400
 20
127.609970
 30
0.0
 10
122.627160
 20
123.347900
 30
0.0
  0
SPLINE
  5
104
100
AcDbEntity
  8
Capa_1
 62
7
100
AcDbSpline
 70
8
 71
3
 72
8
 73
4
 74
0
 40
0
 40
0
 40
0
 40
0
 40
1
 40
1
 40
1
 40
1
 10
122.627160
 20
123.347900
 30
0.0
 10
124.383450
 20
120.719350
 30
0.0
 10
125.877180
 20
118.420800
 30
0.0
 10
125.946560
 20
118.240010
 30
0.0
  0
SPLINE
  5
105
100
AcDbEntity
  8
Capa_1
 62
7
100
AcDbSpline
 70
8
 71
3
 72
8
 73
4
 74
0
 40
0
 40
0
 40
0
 40
0
 40
1
 40
1
 40
1
 40
1
 10
125.946560
 20
118.240010
 30
0.0
 10
126.015960
 20
118.059220
 30
0.0
 10
124.882720
 20
115.447350
 30
0.0
 10
123.428300
 20
112.435860
 30
0.0
  0
SPLINE
  5
106
100
AcDbEntity
  8
Capa_1
 62
7
100
AcDbSpline
 70
8
 71
3
 72
8
 73
4
 74
0
 40
0
 40
0
 40
0
 40
0
 40
1
 40
1
 40
1
 40
1
 10
123.428300
 20
112.435860
 30
0.0
 10
121.134600
 20
107.686570
 30
0.0
 10
120.703620
 20
106.959920
 30
0.0
 10
120.178600
 20
106.956670
 30
0.0
  0
SPLINE
  5
107
100
AcDbEntity
  8
Capa_1
 62
7
100
AcDbSpline
 70
8
 71
3
 72
8
 73
4
 74
0
 40
0
 40
0
 40
0
 40
0
 40
1
 40
1
 40
1
 40
1
 10
120.178600
 20
106.956670
 30
0.0
 10
119.845690
 20
106.954670
 30
0.0
 10
117.192050
 20
106.776960
 30
0.0
 10
114.281630
 20
106.561890
 30
0.0
  0
SPLINE
  5
108
100
AcDbEntity
  8
Capa_1
 62
7
100
AcDbSpline
 70
8
 71
3
 72
8
 73
4
 74
0
 40
0
 40
0
 40
0
 40
0
 40
1
 40
1
 40
1
 40
1
 10
114.281630
 20
106.561890
 30
0.0
 10
111.371220
 20
106.346830
 30
0.0
 10
108.908670
 20
106.169920
 30
0.0
 10
108.809310
 20
106.168760
 30
0.0
  0
SPLINE
  5
109
100
AcDbEntity
  8
Capa_1
 62
7
100
AcDbSpline
 70
8
 71
3
 72
8
 73
4
 74
0
 40
0
 40
0
 40
0
 40
0
 40
1
 40
1
 40
1
 40
1
 10
108.809310
 20
106.168760
 30
0.0
 10
108.709910
 20
106.167760
 30
0.0
 10
107.132370
 20
108.369220
 30
0.0
 10
105.303580
 20
111.061240
 30
0.0
  0
SPLINE
  5
10a
100
AcDbEntity
  8
Capa_1
 62
7
100
AcDbSpline
 70
8
 71
3
 72
8
 73
4
 74
0
 40
0
 40
0
 40
0
 40
0
 40
1
 40
1
 40
1
 40
1
 10
114.281630
 20
107.240960
 30
0.0
 10
116.755490
 20
107.398690
 30
0.0
 10
119.147530
 20
107.580520
 30
0.0
 10
119.597280
 20
107.645030
 30
0.0
  0
SPLINE
  5
10b
100
AcDbEntity
  8
Capa_1
 62
7
100
AcDbSpline
 70
8
 71
3
 72
8
 73
4
 74
0
 40
0
 40
0
 40
0
 40
0
 40
1
 40
1
 40
1
 40
1
 10
119.597280
 20
107.645030
 30
0.0
 10
120.370760
 20
107.755980
 30
0.0
 10
120.547680
 20
108.035450
 30
0.0
 10
122.867430
 20
112.810930
 30
0.0
  0
SPLINE
  5
10c
100
AcDbEntity
  8
Capa_1
 62
7
100
AcDbSpline
 70
8
 71
3
 72
8
 73
4
 74
0
 40
0
 40
0
 40
0
 40
0
 40
1
 40
1
 40
1
 40
1
 10
122.867430
 20
112.810930
 30
0.0
 10
124.646650
 20
116.473680
 30
0.0
 10
125.257420
 20
117.981740
 30
0.0
 10
125.092410
 20
118.304670
 30
0.0
  0
SPLINE
  5
10d
100
AcDbEntity
  8
Capa_1
 62
7
100
AcDbSpline
 70
8
 71
3
 72
8
 73
4
 74
0
 40
0
 40
0
 40
0
 40
0
 40
1
 40
1
 40
1
 40
1
 10
125.092410
 20
118.304670
 30
0.0
 10
124.967320
 20
118.549490
 30
0.0
 10
123.528460
 20
120.733610
 30
0.0
 10
121.894950
 20
123.158280
 30
0.0
  0
SPLINE
  5
10e
100
AcDbEntity
  8
Capa_1
 62
7
100
AcDbSpline
 70
8
 71
3
 72
8
 73
4
 74
0
 40
0
 40
0
 40
0
 40
0
 40
1
 40
1
 40
1
 40
1
 10
121.894950
 20
123.158280
 30
0.0
 10
118.955650
 20
127.521170
 30
0.0
 10
118.915970
 20
127.565550
 30
0.0
 10
118.058490
 20
127.448510
 30
0.0
  0
SPLINE
  5
10f
100
AcDbEntity
  8
Capa_1
 62
7
100
AcDbSpline
 70
8
 71
3
 72
8
 73
4
 74
0
 40
0
 40
0
 40
0
 40
0
 40
1
 40
1
 40
1
 40
1
 10
118.058490
 20
127.448510
 30
0.0
 10
117.027680
 20
127.307810
 30
0.0
 10
109.411070
 20
126.804170
 30
0.0
 10
108.314070
 20
126.804170
 30
0.0
  0
SPLINE
  5
110
100
AcDbEntity
  8
Capa_1
 62
7
100
AcDbSpline
 70
8
 71
3
 72
8
 73
4
 74
0
 40
0
 40
0
 40
0
 40
0
 40
1
 40
1
 40
1
 40
1
 10
108.314070
 20
126.804170
 30
0.0
 10
107.669770
 20
126.804170
 30
0.0
 10
107.466320
 20
126.625410
 30
0.0
 10
107.034260
 20
125.679690
 30
0.0
  0
SPLINE
  5
111
100
AcDbEntity
  8
Capa_1
 62
7
100
AcDbSpline
 70
8
 71
3
 72
8
 73
4
 74
0
 40
0
 40
0
 40
0
 40
0
 40
1
 40
1
 40
1
 40
1
 10
107.034260
 20
125.679690
 30
0.0
 10
106.751720
 20
125.061220
 30
0.0
 10
105.622740
 20
122.723280
 30
0.0
 10
104.525430
 20
120.484270
 30
0.0
  0
LWPOLYLINE
  5
112
100
AcDbEntity
  8
Capa_1
 62
7
100
AcDbPolyline
 90
1
 70
1
 10
105.303580
 20
111.061240
 30
0.0
  0
SPLINE
  5
113
100
AcDbEntity
  8
Capa_1
 62
7
100
AcDbSpline
 70
8
 71
3
 72
8
 73
4
 74
0
 40
0
 40
0
 40
0
 40
0
 40
1
 40
1
 40
1
 40
1
 10
105.728890
 20
111.686870
 30
0.0
 10
107.652250
 20
108.844750
 30
0.0
 10
109.098140
 20
106.959170
 30
0.0
 10
109.355590
 20
106.957300
 30
0.0
  0
SPLINE
  5
114
100
AcDbEntity
  8
Capa_1
 62
7
100
AcDbSpline
 70
8
 71
3
 72
8
 73
4
 74
0
 40
0
 40
0
 40
0
 40
0
 40
1
 40
1
 40
1
 40
1
 10
109.355590
 20
106.957300
 30
0.0
 10
109.591060
 20
106.955300
 30
0.0
 10
111.807780
 20
107.083230
 30
0.0
 10
114.281630
 20
107.240960
 30
0.0
  0
LWPOLYLINE
  5
115
100
AcDbEntity
  8
Capa_1
 62
7
100
AcDbPolyline
 90
3
 70
0
 10
104.525430
 20
120.484270
 30
0.0
 10
102.530320
 20
116.413330
 30
0.0
 10
105.728890
 20
111.686870
 30
0.0
  0
SPLINE
  5
116
100
AcDbEntity
  8
Capa_1
 62
7
100
AcDbSpline
 70
8
 71
3
 72
8
 73
4
 74
0
 40
0
 40
0
 40
0
 40
0
 40
1
 40
1
 40
1
 40
1
 10
88.186703
 20
116.133650
 30
0.0
 10
87.956723
 20
116.399880
 30
0.0
 10
87.256427
 20
117.391610
 30
0.0
 10
86.630489
 20
118.337500
 30
0.0
  0
SPLINE
  5
117
100
AcDbEntity
  8
Capa_1
 62
7
100
AcDbSpline
 70
8
 71
3
 72
8
 73
4
 74
0
 40
0
 40
0
 40
0
 40
0
 40
1
 40
1
 40
1
 40
1
 10
86.630489
 20
118.337500
 30
0.0
 10
86.004551
 20
119.283380
 30
0.0
 10
85.459688
 20
120.098530
 30
0.0
 10
85.419682
 20
120.148940
 30
0.0
  0
SPLINE
  5
118
100
AcDbEntity
  8
Capa_1
 62
7
100
AcDbSpline
 70
8
 71
3
 72
8
 73
4
 74
0
 40
0
 40
0
 40
0
 40
0
 40
1
 40
1
 40
1
 40
1
 10
85.419682
 20
120.148940
 30
0.0
 10
85.379672
 20
120.199340
 30
0.0
 10
84.792078
 20
119.858830
 30
0.0
 10
84.113907
 20
119.392240
 30
0.0
  0
SPLINE
  5
119
100
AcDbEntity
  8
Capa_1
 62
7
100
AcDbSpline
 70
8
 71
3
 72
8
 73
4
 74
0
 40
0
 40
0
 40
0
 40
0
 40
1
 40
1
 40
1
 40
1
 10
84.113907
 20
119.392240
 30
0.0
 10
82.764006
 20
118.463480
 30
0.0
 10
82.794192
 20
118.452820
 30
0.0
 10
81.694568
 20
120.246420
 30
0.0
  0
LWPOLYLINE
  5
11a
100
AcDbEntity
  8
Capa_1
 62
7
100
AcDbPolyline
 90
1
 70
1
 10
114.281630
 20
107.240960
 30
0.0
  0
SPLINE
  5
11b
100
AcDbEntity
  8
Capa_1
 62
7
100
AcDbSpline
 70
8
 71
3
 72
8
 73
4
 74
0
 40
0
 40
0
 40
0
 40
0
 40
1
 40
1
 40
1
 40
1
 10
78.820284
 20
120.110670
 30
0.0
 10
77.365888
 20
119.157010
 30
0.0
 10
76.684277
 20
118.541640
 30
0.0
 10
76.625396
 20
118.129090
 30
0.0
  0
SPLINE
  5
11c
100
AcDbEntity
  8
Capa_1
 62
7
100
AcDbSpline
 70
8
 71
3
 72
8
 73
4
 74
0
 40
0
 40
0
 40
0
 40
0
 40
1
 40
1
 40
1
 40
1
 10
76.625396
 20
118.129090
 30
0.0
 10
76.578426
 20
117.799980
 30
0.0
 10
76.251003
 20
117.341360
 30
0.0
 10
75.897792
 20
117.109930
 30
0.0
  0
SPLINE
  5
11d
100
AcDbEntity
  8
Capa_1
 62
7
100
AcDbSpline
 70
8
 71
3
 72
8
 73
4
 74
0
 40
0
 40
0
 40
0
 40
0
 40
1
 40
1
 40
1
 40
1
 10
75.897792
 20
117.109930
 30
0.0
 10
75.309375
 20
116.724380
 30
0.0
 10
75.200192
 20
116.725440
 30
0.0
 10
74.594131
 20
117.122530
 30
0.0
  0
SPLINE
  5
11e
100
AcDbEntity
  8
Capa_1
 62
7
100
AcDbSpline
 70
8
 71
3
 72
8
 73
4
 74
0
 40
0
 40
0
 40
0
 40
0
 40
1
 40
1
 40
1
 40
1
 10
74.594131
 20
117.122530
 30
0.0
 10
73.322218
 20
117.955920
 30
0.0
 10
74.166879
 20
119.924610
 30
0.0
 10
75.637946
 20
119.555400
 30
0.0
  0
SPLINE
  5
11f
100
AcDbEntity
  8
Capa_1
 62
7
100
AcDbSpline
 70
8
 71
3
 72
8
 73
4
 74
0
 40
0
 40
0
 40
0
 40
0
 40
1
 40
1
 40
1
 40
1
 10
75.637946
 20
119.555400
 30
0.0
 10
76.162546
 20
119.423730
 30
0.0
 10
76.787518
 20
119.701390
 30
0.0
 10
78.545073
 20
120.846960
 30
0.0
  0
SPLINE
  5
120
100
AcDbEntity
  8
Capa_1
 62
7
100
AcDbSpline
 70
8
 71
3
 72
8
 73
4
 74
0
 40
0
 40
0
 40
0
 40
0
 40
1
 40
1
 40
1
 40
1
 10
78.545073
 20
120.846960
 30
0.0
 10
79.776448
 20
121.649560
 30
0.0
 10
80.896866
 20
122.306240
 30
0.0
 10
81.034890
 20
122.306240
 30
0.0
  0
SPLINE
  5
121
100
AcDbEntity
  8
Capa_1
 62
7
100
AcDbSpline
 70
8
 71
3
 72
8
 73
4
 74
0
 40
0
 40
0
 40
0
 40
0
 40
1
 40
1
 40
1
 40
1
 10
81.034890
 20
122.306240
 30
0.0
 10
81.172915
 20
122.306240
 30
0.0
 10
81.667855
 20
121.710930
 30
0.0
 10
82.134757
 20
120.983320
 30
0.0
  0
SPLINE
  5
122
100
AcDbEntity
  8
Capa_1
 62
7
100
AcDbSpline
 70
8
 71
3
 72
8
 73
4
 74
0
 40
0
 40
0
 40
0
 40
0
 40
1
 40
1
 40
1
 40
1
 10
82.134757
 20
120.983320
 30
0.0
 10
82.601659
 20
120.255720
 30
0.0
 10
83.060556
 20
119.661000
 30
0.0
 10
83.154526
 20
119.661720
 30
0.0
  0
SPLINE
  5
123
100
AcDbEntity
  8
Capa_1
 62
7
100
AcDbSpline
 70
8
 71
3
 72
8
 73
4
 74
0
 40
0
 40
0
 40
0
 40
0
 40
1
 40
1
 40
1
 40
1
 10
83.154526
 20
119.661720
 30
0.0
 10
83.248496
 20
119.662440
 30
0.0
 10
83.678249
 20
119.945370
 30
0.0
 10
84.109532
 20
120.290440
 30
0.0
  0
LWPOLYLINE
  5
124
100
AcDbEntity
  8
Capa_1
 62
7
100
AcDbPolyline
 90
3
 70
0
 10
81.694568
 20
120.246420
 30
0.0
 10
80.929770
 20
121.493880
 30
0.0
 10
78.820284
 20
120.110670
 30
0.0
  0
SPLINE
  5
125
100
AcDbEntity
  8
Capa_1
 62
7
100
AcDbSpline
 70
8
 71
3
 72
8
 73
4
 74
0
 40
0
 40
0
 40
0
 40
0
 40
1
 40
1
 40
1
 40
1
 10
82.912029
 20
128.623400
 30
0.0
 10
83.648696
 20
130.091380
 30
0.0
 10
84.251424
 20
131.393410
 30
0.0
 10
84.251424
 20
131.516790
 30
0.0
  0
SPLINE
  5
126
100
AcDbEntity
  8
Capa_1
 62
7
100
AcDbSpline
 70
8
 71
3
 72
8
 73
4
 74
0
 40
0
 40
0
 40
0
 40
0
 40
1
 40
1
 40
1
 40
1
 10
84.251424
 20
131.516790
 30
0.0
 10
84.251424
 20
131.738290
 30
0.0
 10
80.581984
 20
132.624990
 30
0.0
 10
79.665367
 20
132.624990
 30
0.0
  0
SPLINE
  5
127
100
AcDbEntity
  8
Capa_1
 62
7
100
AcDbSpline
 70
8
 71
3
 72
8
 73
4
 74
0
 40
0
 40
0
 40
0
 40
0
 40
1
 40
1
 40
1
 40
1
 10
79.665367
 20
132.624990
 30
0.0
 10
79.405259
 20
132.624990
 30
0.0
 10
78.192356
 20
131.940380
 30
0.0
 10
76.970029
 20
131.103640
 30
0.0
  0
SPLINE
  5
128
100
AcDbEntity
  8
Capa_1
 62
7
100
AcDbSpline
 70
8
 71
3
 72
8
 73
4
 74
0
 40
0
 40
0
 40
0
 40
0
 40
1
 40
1
 40
1
 40
1
 10
76.970029
 20
131.103640
 30
0.0
 10
75.396078
 20
130.026190
 30
0.0
 10
74.744523
 20
129.420540
 30
0.0
 10
74.737019
 20
129.027980
 30
0.0
  0
SPLINE
  5
129
100
AcDbEntity
  8
Capa_1
 62
7
100
AcDbSpline
 70
8
 71
3
 72
8
 73
4
 74
0
 40
0
 40
0
 40
0
 40
0
 40
1
 40
1
 40
1
 40
1
 10
74.737019
 20
129.027980
 30
0.0
 10
74.705129
 20
127.359540
 30
0.0
 10
72.293371
 20
127.180000
 30
0.0
 10
72.131867
 20
128.834040
 30
0.0
  0
SPLINE
  5
12a
100
AcDbEntity
  8
Capa_1
 62
7
100
AcDbSpline
 70
8
 71
3
 72
8
 73
4
 74
0
 40
0
 40
0
 40
0
 40
0
 40
1
 40
1
 40
1
 40
1
 10
72.131867
 20
128.834040
 30
0.0
 10
72.035817
 20
129.817690
 30
0.0
 10
72.887752
 20
130.581440
 30
0.0
 10
73.820007
 20
130.347460
 30
0.0
  0
SPLINE
  5
12b
100
AcDbEntity
  8
Capa_1
 62
7
100
AcDbSpline
 70
8
 71
3
 72
8
 73
4
 74
0
 40
0
 40
0
 40
0
 40
0
 40
1
 40
1
 40
1
 40
1
 10
73.820007
 20
130.347460
 30
0.0
 10
74.233017
 20
130.243800
 30
0.0
 10
74.954142
 20
130.566880
 30
0.0
 10
76.284910
 20
131.451780
 30
0.0
  0
SPLINE
  5
12c
100
AcDbEntity
  8
Capa_1
 62
7
100
AcDbSpline
 70
8
 71
3
 72
8
 73
4
 74
0
 40
0
 40
0
 40
0
 40
0
 40
1
 40
1
 40
1
 40
1
 10
76.284910
 20
131.451780
 30
0.0
 10
77.319513
 20
132.139750
 30
0.0
 10
78.166007
 20
132.782390
 30
0.0
 10
78.166007
 20
132.879870
 30
0.0
  0
SPLINE
  5
12d
100
AcDbEntity
  8
Capa_1
 62
7
100
AcDbSpline
 70
8
 71
3
 72
8
 73
4
 74
0
 40
0
 40
0
 40
0
 40
0
 40
1
 40
1
 40
1
 40
1
 10
78.166007
 20
132.879870
 30
0.0
 10
78.166007
 20
132.977370
 30
0.0
 10
77.048921
 20
133.267510
 30
0.0
 10
75.683593
 20
133.524660
 30
0.0
  0
LWPOLYLINE
  5
12e
100
AcDbEntity
  8
Capa_1
 62
7
100
AcDbPolyline
 90
5
 70
0
 10
84.109532
 20
120.290440
 30
0.0
 10
84.893681
 20
120.917850
 30
0.0
 10
83.233158
 20
123.436100
 30
0.0
 10
81.572635
 20
125.954350
 30
0.0
 10
82.912029
 20
128.623400
 30
0.0
  0
SPLINE
  5
12f
100
AcDbEntity
  8
Capa_1
 62
7
100
AcDbSpline
 70
8
 71
3
 72
8
 73
4
 74
0
 40
0
 40
0
 40
0
 40
0
 40
1
 40
1
 40
1
 40
1
 10
71.059344
 20
132.581000
 30
0.0
 10
69.881334
 20
131.804830
 30
0.0
 10
68.914826
 20
130.979870
 30
0.0
 10
68.911548
 20
130.747770
 30
0.0
  0
SPLINE
  5
130
100
AcDbEntity
  8
Capa_1
 62
7
100
AcDbSpline
 70
8
 71
3
 72
8
 73
4
 74
0
 40
0
 40
0
 40
0
 40
0
 40
1
 40
1
 40
1
 40
1
 10
68.911548
 20
130.747770
 30
0.0
 10
68.896318
 20
129.669020
 30
0.0
 10
67.204442
 20
129.072270
 30
0.0
 10
66.410946
 20
129.865760
 30
0.0
  0
SPLINE
  5
131
100
AcDbEntity
  8
Capa_1
 62
7
100
AcDbSpline
 70
8
 71
3
 72
8
 73
4
 74
0
 40
0
 40
0
 40
0
 40
0
 40
1
 40
1
 40
1
 40
1
 10
66.410946
 20
129.865760
 30
0.0
 10
65.883240
 20
130.393470
 30
0.0
 10
65.886875
 20
130.765130
 30
0.0
 10
66.427296
 20
131.536680
 30
0.0
  0
SPLINE
  5
132
100
AcDbEntity
  8
Capa_1
 62
7
100
AcDbSpline
 70
8
 71
3
 72
8
 73
4
 74
0
 40
0
 40
0
 40
0
 40
0
 40
1
 40
1
 40
1
 40
1
 10
66.427296
 20
131.536680
 30
0.0
 10
66.785484
 20
132.048070
 30
0.0
 10
67.018663
 20
132.127780
 30
0.0
 10
67.790184
 20
132.002580
 30
0.0
  0
SPLINE
  5
133
100
AcDbEntity
  8
Capa_1
 62
7
100
AcDbSpline
 70
8
 71
3
 72
8
 73
4
 74
0
 40
0
 40
0
 40
0
 40
0
 40
1
 40
1
 40
1
 40
1
 10
67.790184
 20
132.002580
 30
0.0
 10
68.605653
 20
131.870250
 30
0.0
 10
68.985888
 20
132.034080
 30
0.0
 10
70.859699
 20
133.324810
 30
0.0
  0
LWPOLYLINE
  5
134
100
AcDbEntity
  8
Capa_1
 62
7
100
AcDbPolyline
 90
3
 70
0
 10
75.683593
 20
133.524660
 30
0.0
 10
73.201180
 20
133.992220
 30
0.0
 10
71.059344
 20
132.581000
 30
0.0
  0
SPLINE
  5
135
100
AcDbEntity
  8
Capa_1
 62
7
100
AcDbSpline
 70
8
 71
3
 72
8
 73
4
 74
0
 40
0
 40
0
 40
0
 40
0
 40
1
 40
1
 40
1
 40
1
 10
78.558791
 20
133.676960
 30
0.0
 10
81.616981
 20
133.060350
 30
0.0
 10
84.259903
 20
132.502230
 30
0.0
 10
84.431951
 20
132.436690
 30
0.0
  0
SPLINE
  5
136
100
AcDbEntity
  8
Capa_1
 62
7
100
AcDbSpline
 70
8
 71
3
 72
8
 73
4
 74
0
 40
0
 40
0
 40
0
 40
0
 40
1
 40
1
 40
1
 40
1
 10
84.431951
 20
132.436690
 30
0.0
 10
84.710499
 20
132.330590
 30
0.0
 10
86.632678
 20
136.004660
 30
0.0
 10
86.632678
 20
136.643180
 30
0.0
  0
SPLINE
  5
137
100
AcDbEntity
  8
Capa_1
 62
7
100
AcDbSpline
 70
8
 71
3
 72
8
 73
4
 74
0
 40
0
 40
0
 40
0
 40
0
 40
1
 40
1
 40
1
 40
1
 10
86.632678
 20
136.643180
 30
0.0
 10
86.632678
 20
136.774900
 30
0.0
 10
85.867189
 20
138.003820
 30
0.0
 10
84.931592
 20
139.374110
 30
0.0
  0
SPLINE
  5
138
100
AcDbEntity
  8
Capa_1
 62
7
100
AcDbSpline
 70
8
 71
3
 72
8
 73
4
 74
0
 40
0
 40
0
 40
0
 40
0
 40
1
 40
1
 40
1
 40
1
 10
84.931592
 20
139.374110
 30
0.0
 10
83.995994
 20
140.744400
 30
0.0
 10
83.107676
 20
142.078370
 30
0.0
 10
82.957550
 20
142.338500
 30
0.0
  0
SPLINE
  5
139
100
AcDbEntity
  8
Capa_1
 62
7
100
AcDbSpline
 70
8
 71
3
 72
8
 73
4
 74
0
 40
0
 40
0
 40
0
 40
0
 40
1
 40
1
 40
1
 40
1
 10
82.957550
 20
142.338500
 30
0.0
 10
82.703688
 20
142.778370
 30
0.0
 10
82.571316
 20
142.749740
 30
0.0
 10
81.065059
 20
141.929160
 30
0.0
  0
SPLINE
  5
13a
100
AcDbEntity
  8
Capa_1
 62
7
100
AcDbSpline
 70
8
 71
3
 72
8
 73
4
 74
0
 40
0
 40
0
 40
0
 40
0
 40
1
 40
1
 40
1
 40
1
 10
81.065059
 20
141.929160
 30
0.0
 10
80.174314
 20
141.443900
 30
0.0
 10
79.412700
 20
141.086710
 30
0.0
 10
79.372585
 20
141.135410
 30
0.0
  0
SPLINE
  5
13b
100
AcDbEntity
  8
Capa_1
 62
7
100
AcDbSpline
 70
8
 71
3
 72
8
 73
4
 74
0
 40
0
 40
0
 40
0
 40
0
 40
1
 40
1
 40
1
 40
1
 10
79.372585
 20
141.135410
 30
0.0
 10
79.332465
 20
141.184110
 30
0.0
 10
78.228850
 20
142.831450
 30
0.0
 10
76.920099
 20
144.796180
 30
0.0
  0
SPLINE
  5
13c
100
AcDbEntity
  8
Capa_1
 62
7
100
AcDbSpline
 70
8
 71
3
 72
8
 73
4
 74
0
 40
0
 40
0
 40
0
 40
0
 40
1
 40
1
 40
1
 40
1
 10
76.920099
 20
144.796180
 30
0.0
 10
74.903300
 20
147.823850
 30
0.0
 10
74.403466
 20
148.408690
 30
0.0
 10
73.641302
 20
148.632640
 30
0.0
  0
SPLINE
  5
13d
100
AcDbEntity
  8
Capa_1
 62
7
100
AcDbSpline
 70
8
 71
3
 72
8
 73
4
 74
0
 40
0
 40
0
 40
0
 40
0
 40
1
 40
1
 40
1
 40
1
 10
73.641302
 20
148.632640
 30
0.0
 10
72.928507
 20
148.842080
 30
0.0
 10
72.724225
 20
149.052580
 30
0.0
 10
72.656074
 20
149.647870
 30
0.0
  0
SPLINE
  5
13e
100
AcDbEntity
  8
Capa_1
 62
7
100
AcDbSpline
 70
8
 71
3
 72
8
 73
4
 74
0
 40
0
 40
0
 40
0
 40
0
 40
1
 40
1
 40
1
 40
1
 10
72.656074
 20
149.647870
 30
0.0
 10
72.558734
 20
150.498110
 30
0.0
 10
73.230956
 20
151.410410
 30
0.0
 10
73.954785
 20
151.410410
 30
0.0
  0
SPLINE
  5
13f
100
AcDbEntity
  8
Capa_1
 62
7
100
AcDbSpline
 70
8
 71
3
 72
8
 73
4
 74
0
 40
0
 40
0
 40
0
 40
0
 40
1
 40
1
 40
1
 40
1
 10
73.954785
 20
151.410410
 30
0.0
 10
74.717872
 20
151.410410
 30
0.0
 10
75.274213
 20
150.646990
 30
0.0
 10
75.209659
 20
149.688460
 30
0.0
  0
SPLINE
  5
140
100
AcDbEntity
  8
Capa_1
 62
7
100
AcDbSpline
 70
8
 71
3
 72
8
 73
4
 74
0
 40
0
 40
0
 40
0
 40
0
 40
1
 40
1
 40
1
 40
1
 10
75.209659
 20
149.688460
 30
0.0
 10
75.161949
 20
148.979990
 30
0.0
 10
75.575045
 20
148.170420
 30
0.0
 10
77.356815
 20
145.480600
 30
0.0
  0
SPLINE
  5
141
100
AcDbEntity
  8
Capa_1
 62
7
100
AcDbSpline
 70
8
 71
3
 72
8
 73
4
 74
0
 40
0
 40
0
 40
0
 40
0
 40
1
 40
1
 40
1
 40
1
 10
77.356815
 20
145.480600
 30
0.0
 10
78.570245
 20
143.648760
 30
0.0
 10
79.663647
 20
142.149990
 30
0.0
 10
79.786598
 20
142.149990
 30
0.0
  0
SPLINE
  5
142
100
AcDbEntity
  8
Capa_1
 62
7
100
AcDbSpline
 70
8
 71
3
 72
8
 73
4
 74
0
 40
0
 40
0
 40
0
 40
0
 40
1
 40
1
 40
1
 40
1
 10
79.786598
 20
142.149990
 30
0.0
 10
79.909549
 20
142.149990
 30
0.0
 10
80.604663
 20
142.515800
 30
0.0
 10
81.331296
 20
142.962900
 30
0.0
  0
SPLINE
  5
143
100
AcDbEntity
  8
Capa_1
 62
7
100
AcDbSpline
 70
8
 71
3
 72
8
 73
4
 74
0
 40
0
 40
0
 40
0
 40
0
 40
1
 40
1
 40
1
 40
1
 10
81.331296
 20
142.962900
 30
0.0
 10
82.057929
 20
143.410000
 30
0.0
 10
82.753736
 20
143.713220
 30
0.0
 10
82.877532
 20
143.636700
 30
0.0
  0
SPLINE
  5
144
100
AcDbEntity
  8
Capa_1
 62
7
100
AcDbSpline
 70
8
 71
3
 72
8
 73
4
 74
0
 40
0
 40
0
 40
0
 40
0
 40
1
 40
1
 40
1
 40
1
 10
82.877532
 20
143.636700
 30
0.0
 10
83.001329
 20
143.560200
 30
0.0
 10
84.091064
 20
142.005400
 30
0.0
 10
85.299164
 20
140.181610
 30
0.0
  0
SPLINE
  5
145
100
AcDbEntity
  8
Capa_1
 62
7
100
AcDbSpline
 70
8
 71
3
 72
8
 73
4
 74
0
 40
0
 40
0
 40
0
 40
0
 40
1
 40
1
 40
1
 40
1
 10
85.299164
 20
140.181610
 30
0.0
 10
87.134396
 20
137.411080
 30
0.0
 10
87.587937
 20
136.884500
 30
0.0
 10
88.056382
 20
136.980370
 30
0.0
  0
SPLINE
  5
146
100
AcDbEntity
  8
Capa_1
 62
7
100
AcDbSpline
 70
8
 71
3
 72
8
 73
4
 74
0
 40
0
 40
0
 40
0
 40
0
 40
1
 40
1
 40
1
 40
1
 10
88.056382
 20
136.980370
 30
0.0
 10
88.890761
 20
137.151110
 30
0.0
 10
99.073725
 20
137.737990
 30
0.0
 10
99.166941
 20
137.620710
 30
0.0
  0
SPLINE
  5
147
100
AcDbEntity
  8
Capa_1
 62
7
100
AcDbSpline
 70
8
 71
3
 72
8
 73
4
 74
0
 40
0
 40
0
 40
0
 40
0
 40
1
 40
1
 40
1
 40
1
 10
99.166941
 20
137.620710
 30
0.0
 10
99.211061
 20
137.565210
 30
0.0
 10
100.754150
 20
135.275840
 30
0.0
 10
102.596030
 20
132.533250
 30
0.0
  0
LWPOLYLINE
  5
148
100
AcDbEntity
  8
Capa_1
 62
7
100
AcDbPolyline
 90
3
 70
0
 10
70.859699
 20
133.324810
 30
0.0
 10
72.998447
 20
134.798080
 30
0.0
 10
78.558791
 20
133.676960
 30
0.0
  0
SPLINE
  5
149
100
AcDbEntity
  8
Capa_1
 62
7
100
AcDbSpline
 70
8
 71
3
 72
8
 73
4
 74
0
 40
0
 40
0
 40
0
 40
0
 40
1
 40
1
 40
1
 40
1
 10
95.673029
 20
116.252870
 30
0.0
 10
92.956409
 20
116.077820
 30
0.0
 10
90.254725
 20
115.870460
 30
0.0
 10
89.669287
 20
115.792090
 30
0.0
  0
SPLINE
  5
14a
100
AcDbEntity
  8
Capa_1
 62
7
100
AcDbSpline
 70
8
 71
3
 72
8
 73
4
 74
0
 40
0
 40
0
 40
0
 40
0
 40
1
 40
1
 40
1
 40
1
 10
89.669287
 20
115.792090
 30
0.0
 10
88.845844
 20
115.681840
 30
0.0
 10
88.510184
 20
115.759190
 30
0.0
 10
88.186707
 20
116.133640
 30
0.0
  0
LWPOLYLINE
  5
14b
100
AcDbEntity
  8
Capa_1
 62
7
100
AcDbPolyline
 90
5
 70
0
 10
102.596030
 20
132.533250
 30
0.0
 10
105.944910
 20
127.546720
 30
0.0
 10
103.278620
 20
122.058940
 30
0.0
 10
100.612330
 20
116.571160
 30
0.0
 10
95.673029
 20
116.252870
 30
0.0
  0
SPLINE
  5
14c
100
AcDbEntity
  8
Capa_1
 62
7
100
AcDbSpline
 70
8
 71
3
 72
8
 73
4
 74
0
 40
0
 40
0
 40
0
 40
0
 40
1
 40
1
 40
1
 40
1
 10
94.805948
 20
116.881100
 30
0.0
 10
97.773279
 20
117.092600
 30
0.0
 10
100.229180
 20
117.298450
 30
0.0
 10
100.263510
 20
117.338550
 30
0.0
  0
SPLINE
  5
14d
100
AcDbEntity
  8
Capa_1
 62
7
100
AcDbSpline
 70
8
 71
3
 72
8
 73
4
 74
0
 40
0
 40
0
 40
0
 40
0
 40
1
 40
1
 40
1
 40
1
 10
100.263510
 20
117.338550
 30
0.0
 10
100.297810
 20
117.378650
 30
0.0
 10
101.424010
 20
119.689380
 30
0.0
 10
102.766120
 20
122.473520
 30
0.0
  0
LWPOLYLINE
  5
14e
100
AcDbEntity
  8
Capa_1
 62
7
100
AcDbPolyline
 90
1
 70
1
 10
88.186707
 20
116.133640
 30
0.0
  0
SPLINE
  5
14f
100
AcDbEntity
  8
Capa_1
 62
7
100
AcDbSpline
 70
8
 71
3
 72
8
 73
4
 74
0
 40
0
 40
0
 40
0
 40
0
 40
1
 40
1
 40
1
 40
1
 10
97.758691
 20
136.994340
 30
0.0
 10
97.241934
 20
136.929440
 30
0.0
 10
94.689388
 20
136.735920
 30
0.0
 10
92.086366
 20
136.564300
 30
0.0
  0
LWPOLYLINE
  5
150
100
AcDbEntity
  8
Capa_1
 62
7
100
AcDbPolyline
 90
5
 70
0
 10
102.766120
 20
122.473520
 30
0.0
 10
105.206330
 20
127.535580
 30
0.0
 10
101.952290
 20
132.323960
 30
0.0
 10
98.698249
 20
137.112340
 30
0.0
 10
97.758691
 20
136.994340
 30
0.0
  0
SPLINE
  5
151
100
AcDbEntity
  8
Capa_1
 62
7
100
AcDbSpline
 70
8
 71
3
 72
8
 73
4
 74
0
 40
0
 40
0
 40
0
 40
0
 40
1
 40
1
 40
1
 40
1
 10
84.858952
 20
131.134420
 30
0.0
 10
83.372332
 20
128.084570
 30
0.0
 10
82.444867
 20
125.881690
 30
0.0
 10
82.563677
 20
125.682760
 30
0.0
  0
SPLINE
  5
152
100
AcDbEntity
  8
Capa_1
 62
7
100
AcDbSpline
 70
8
 71
3
 72
8
 73
4
 74
0
 40
0
 40
0
 40
0
 40
0
 40
1
 40
1
 40
1
 40
1
 10
82.563677
 20
125.682760
 30
0.0
 10
83.825357
 20
123.570320
 30
0.0
 10
88.861167
 20
116.486760
 30
0.0
 10
89.098247
 20
116.490990
 30
0.0
  0
SPLINE
  5
153
100
AcDbEntity
  8
Capa_1
 62
7
100
AcDbSpline
 70
8
 71
3
 72
8
 73
4
 74
0
 40
0
 40
0
 40
0
 40
0
 40
1
 40
1
 40
1
 40
1
 10
89.098247
 20
116.490990
 30
0.0
 10
89.270151
 20
116.493990
 30
0.0
 10
91.838616
 20
116.669600
 30
0.0
 10
94.805948
 20
116.881100
 30
0.0
  0
LWPOLYLINE
  5
154
100
AcDbEntity
  8
Capa_1
 62
7
100
AcDbPolyline
 90
3
 70
0
 10
92.086366
 20
136.564300
 30
0.0
 10
87.353598
 20
136.252260
 30
0.0
 10
84.858952
 20
131.134420
 30
0.0
  0
SPLINE
  5
155
100
AcDbEntity
  8
Capa_1
 62
7
100
AcDbSpline
 70
8
 71
3
 72
8
 73
4
 74
0
 40
0
 40
0
 40
0
 40
0
 40
1
 40
1
 40
1
 40
1
 10
75.711164
 20
117.840570
 30
0.0
 10
76.122256
 20
118.251670
 30
0.0
 10
75.832236
 20
118.866670
 30
0.0
 10
75.227282
 20
118.866670
 30
0.0
  0
SPLINE
  5
156
100
AcDbEntity
  8
Capa_1
 62
7
100
AcDbSpline
 70
8
 71
3
 72
8
 73
4
 74
0
 40
0
 40
0
 40
0
 40
0
 40
1
 40
1
 40
1
 40
1
 10
75.227282
 20
118.866670
 30
0.0
 10
74.917990
 20
118.866670
 30
0.0
 10
74.726423
 20
118.681140
 30
0.0
 10
74.726423
 20
118.381600
 30
0.0
  0
SPLINE
  5
157
100
AcDbEntity
  8
Capa_1
 62
7
100
AcDbSpline
 70
8
 71
3
 72
8
 73
4
 74
0
 40
0
 40
0
 40
0
 40
0
 40
1
 40
1
 40
1
 40
1
 10
74.726423
 20
118.381600
 30
0.0
 10
74.726423
 20
117.567380
 30
0.0
 10
75.185662
 20
117.315070
 30
0.0
 10
75.711164
 20
117.840570
 30
0.0
  0
LWPOLYLINE
  5
158
100
AcDbEntity
  8
Capa_1
 62
7
100
AcDbPolyline
 90
1
 70
1
 10
94.805948
 20
116.881100
 30
0.0
  0
SPLINE
  5
159
100
AcDbEntity
  8
Capa_1
 62
7
100
AcDbSpline
 70
8
 71
3
 72
8
 73
4
 74
0
 40
0
 40
0
 40
0
 40
0
 40
1
 40
1
 40
1
 40
1
 10
73.932673
 20
128.905220
 30
0.0
 10
73.932673
 20
129.572280
 30
0.0
 10
73.479023
 20
129.842050
 30
0.0
 10
73.010768
 20
129.453430
 30
0.0
  0
SPLINE
  5
15a
100
AcDbEntity
  8
Capa_1
 62
7
100
AcDbSpline
 70
8
 71
3
 72
8
 73
4
 74
0
 40
0
 40
0
 40
0
 40
0
 40
1
 40
1
 40
1
 40
1
 10
73.010768
 20
129.453430
 30
0.0
 10
72.529021
 20
129.053620
 30
0.0
 10
72.791519
 20
128.391670
 30
0.0
 10
73.431814
 20
128.391670
 30
0.0
  0
SPLINE
  5
15b
100
AcDbEntity
  8
Capa_1
 62
7
100
AcDbSpline
 70
8
 71
3
 72
8
 73
4
 74
0
 40
0
 40
0
 40
0
 40
0
 40
1
 40
1
 40
1
 40
1
 10
73.431814
 20
128.391670
 30
0.0
 10
73.751208
 20
128.391670
 30
0.0
 10
73.932673
 20
128.577730
 30
0.0
 10
73.932673
 20
128.905220
 30
0.0
  0
LWPOLYLINE
  5
15c
100
AcDbEntity
  8
Capa_1
 62
7
100
AcDbPolyline
 90
1
 70
1
 10
75.711164
 20
117.840570
 30
0.0
  0
SPLINE
  5
15d
100
AcDbEntity
  8
Capa_1
 62
7
100
AcDbSpline
 70
8
 71
3
 72
8
 73
4
 74
0
 40
0
 40
0
 40
0
 40
0
 40
1
 40
1
 40
1
 40
1
 10
68.111839
 20
130.779170
 30
0.0
 10
68.111839
 20
131.042520
 30
0.0
 10
67.963011
 20
131.309900
 30
0.0
 10
67.781110
 20
131.373350
 30
0.0
  0
SPLINE
  5
15e
100
AcDbEntity
  8
Capa_1
 62
7
100
AcDbSpline
 70
8
 71
3
 72
8
 73
4
 74
0
 40
0
 40
0
 40
0
 40
0
 40
1
 40
1
 40
1
 40
1
 10
67.781110
 20
131.373350
 30
0.0
 10
67.245365
 20
131.560230
 30
0.0
 10
66.788922
 20
131.281150
 30
0.0
 10
66.788922
 20
130.766660
 30
0.0
  0
SPLINE
  5
15f
100
AcDbEntity
  8
Capa_1
 62
7
100
AcDbSpline
 70
8
 71
3
 72
8
 73
4
 74
0
 40
0
 40
0
 40
0
 40
0
 40
1
 40
1
 40
1
 40
1
 10
66.788922
 20
130.766660
 30
0.0
 10
66.788922
 20
130.503310
 30
0.0
 10
66.937751
 20
130.235930
 30
0.0
 10
67.119652
 20
130.172480
 30
0.0
  0
SPLINE
  5
160
100
AcDbEntity
  8
Capa_1
 62
7
100
AcDbSpline
 70
8
 71
3
 72
8
 73
4
 74
0
 40
0
 40
0
 40
0
 40
0
 40
1
 40
1
 40
1
 40
1
 10
67.119652
 20
130.172480
 30
0.0
 10
67.655396
 20
129.985600
 30
0.0
 10
68.111839
 20
130.264680
 30
0.0
 10
68.111839
 20
130.779170
 30
0.0
  0
LWPOLYLINE
  5
161
100
AcDbEntity
  8
Capa_1
 62
7
100
AcDbPolyline
 90
1
 70
1
 10
73.932673
 20
128.905220
 30
0.0
  0
SPLINE
  5
162
100
AcDbEntity
  8
Capa_1
 62
7
100
AcDbSpline
 70
8
 71
3
 72
8
 73
4
 74
0
 40
0
 40
0
 40
0
 40
0
 40
1
 40
1
 40
1
 40
1
 10
74.461840
 20
149.807300
 30
0.0
 10
74.461840
 20
150.089760
 30
0.0
 10
74.332403
 20
150.400850
 30
0.0
 10
74.174203
 20
150.498620
 30
0.0
  0
SPLINE
  5
163
100
AcDbEntity
  8
Capa_1
 62
7
100
AcDbSpline
 70
8
 71
3
 72
8
 73
4
 74
0
 40
0
 40
0
 40
0
 40
0
 40
1
 40
1
 40
1
 40
1
 10
74.174203
 20
150.498620
 30
0.0
 10
73.769631
 20
150.748660
 30
0.0
 10
73.301411
 20
150.206020
 30
0.0
 10
73.492362
 20
149.708410
 30
0.0
  0
SPLINE
  5
164
100
AcDbEntity
  8
Capa_1
 62
7
100
AcDbSpline
 70
8
 71
3
 72
8
 73
4
 74
0
 40
0
 40
0
 40
0
 40
0
 40
1
 40
1
 40
1
 40
1
 10
73.492362
 20
149.708410
 30
0.0
 10
73.719162
 20
149.117380
 30
0.0
 10
74.461840
 20
149.193140
 30
0.0
 10
74.461840
 20
149.807310
 30
0.0
  0
LWPOLYLINE
  5
165
100
AcDbEntity
  8
Capa_1
 62
7
100
AcDbPolyline
 90
1
 70
1
 10
68.111839
 20
130.779170
 30
0.0
  0
SPLINE
  5
166
100
AcDbEntity
  8
Capa_1
 62
7
100
AcDbSpline
 70
8
 71
3
 72
8
 73
4
 74
0
 40
0
 40
0
 40
0
 40
0
 40
1
 40
1
 40
1
 40
1
 10
124.168660
 20
123.681330
 30
0.0
 10
122.399330
 20
126.329390
 30
0.0
 10
120.898820
 20
128.698180
 30
0.0
 10
120.834190
 20
128.945300
 30
0.0
  0
SPLINE
  5
167
100
AcDbEntity
  8
Capa_1
 62
7
100
AcDbSpline
 70
8
 71
3
 72
8
 73
4
 74
0
 40
0
 40
0
 40
0
 40
0
 40
1
 40
1
 40
1
 40
1
 10
120.834190
 20
128.945300
 30
0.0
 10
120.769590
 20
129.192420
 30
0.0
 10
121.873940
 20
131.780510
 30
0.0
 10
123.288360
 20
134.696610
 30
0.0
  0
LWPOLYLINE
  5
168
100
AcDbEntity
  8
Capa_1
 62
7
100
AcDbPolyline
 90
1
 70
1
 10
74.461840
 20
149.807310
 30
0.0
  0
SPLINE
  5
169
100
AcDbEntity
  8
Capa_1
 62
7
100
AcDbSpline
 70
8
 71
3
 72
8
 73
4
 74
0
 40
0
 40
0
 40
0
 40
0
 40
1
 40
1
 40
1
 40
1
 10
127.479160
 20
140.141190
 30
0.0
 10
130.556610
 20
140.412190
 30
0.0
 10
136.527300
 20
140.827080
 30
0.0
 10
137.349830
 20
140.827080
 30
0.0
  0
SPLINE
  5
16a
100
AcDbEntity
  8
Capa_1
 62
7
100
AcDbSpline
 70
8
 71
3
 72
8
 73
4
 74
0
 40
0
 40
0
 40
0
 40
0
 40
1
 40
1
 40
1
 40
1
 10
137.349830
 20
140.827080
 30
0.0
 10
138.124440
 20
140.827080
 30
0.0
 10
138.372620
 20
140.534420
 30
0.0
 10
141.380510
 20
136.074060
 30
0.0
  0
SPLINE
  5
16b
100
AcDbEntity
  8
Capa_1
 62
7
100
AcDbSpline
 70
8
 71
3
 72
8
 73
4
 74
0
 40
0
 40
0
 40
0
 40
0
 40
1
 40
1
 40
1
 40
1
 10
141.380510
 20
136.074060
 30
0.0
 10
143.143400
 20
133.459890
 30
0.0
 10
144.648300
 20
131.158060
 30
0.0
 10
144.724740
 20
130.958860
 30
0.0
  0
SPLINE
  5
16c
100
AcDbEntity
  8
Capa_1
 62
7
100
AcDbSpline
 70
8
 71
3
 72
8
 73
4
 74
0
 40
0
 40
0
 40
0
 40
0
 40
1
 40
1
 40
1
 40
1
 10
144.724740
 20
130.958860
 30
0.0
 10
144.801140
 20
130.759670
 30
0.0
 10
143.675330
 20
128.136030
 30
0.0
 10
142.222840
 20
125.128550
 30
0.0
  0
LWPOLYLINE
  5
16d
100
AcDbEntity
  8
Capa_1
 62
7
100
AcDbPolyline
 90
3
 70
0
 10
123.288360
 20
134.696610
 30
0.0
 10
125.860020
 20
139.998600
 30
0.0
 10
127.479160
 20
140.141190
 30
0.0
  0
SPLINE
  5
16e
100
AcDbEntity
  8
Capa_1
 62
7
100
AcDbSpline
 70
8
 71
3
 72
8
 73
4
 74
0
 40
0
 40
0
 40
0
 40
0
 40
1
 40
1
 40
1
 40
1
 10
138.705760
 20
119.652420
 30
0.0
 10
138.223850
 20
119.648420
 30
0.0
 10
135.626900
 20
119.473070
 30
0.0
 10
132.934760
 20
119.263080
 30
0.0
  0
SPLINE
  5
16f
100
AcDbEntity
  8
Capa_1
 62
7
100
AcDbSpline
 70
8
 71
3
 72
8
 73
4
 74
0
 40
0
 40
0
 40
0
 40
0
 40
1
 40
1
 40
1
 40
1
 10
132.934760
 20
119.263080
 30
0.0
 10
130.242630
 20
119.053090
 30
0.0
 10
127.892740
 20
118.877890
 30
0.0
 10
127.712800
 20
118.873740
 30
0.0
  0
SPLINE
  5
170
100
AcDbEntity
  8
Capa_1
 62
7
100
AcDbSpline
 70
8
 71
3
 72
8
 73
4
 74
0
 40
0
 40
0
 40
0
 40
0
 40
1
 40
1
 40
1
 40
1
 10
127.712800
 20
118.873740
 30
0.0
 10
127.532860
 20
118.869740
 30
0.0
 10
125.937990
 20
121.032800
 30
0.0
 10
124.168660
 20
123.680870
 30
0.0
  0
LWPOLYLINE
  5
171
100
AcDbEntity
  8
Capa_1
 62
7
100
AcDbPolyline
 90
3
 70
0
 10
142.222840
 20
125.128550
 30
0.0
 10
139.581970
 20
119.660420
 30
0.0
 10
138.705760
 20
119.652420
 30
0.0
  0
SPLINE
  5
172
100
AcDbEntity
  8
Capa_1
 62
7
100
AcDbSpline
 70
8
 71
3
 72
8
 73
4
 74
0
 40
0
 40
0
 40
0
 40
0
 40
1
 40
1
 40
1
 40
1
 10
134.089440
 20
120.047240
 30
0.0
 10
136.834560
 20
120.255760
 30
0.0
 10
139.112900
 20
120.462390
 30
0.0
 10
139.152420
 20
120.506410
 30
0.0
  0
SPLINE
  5
173
100
AcDbEntity
  8
Capa_1
 62
7
100
AcDbSpline
 70
8
 71
3
 72
8
 73
4
 74
0
 40
0
 40
0
 40
0
 40
0
 40
1
 40
1
 40
1
 40
1
 10
139.152420
 20
120.506410
 30
0.0
 10
139.284130
 20
120.653160
 30
0.0
 10
142.093420
 20
126.377280
 30
0.0
 10
143.103270
 20
128.556550
 30
0.0
  0
LWPOLYLINE
  5
174
100
AcDbEntity
  8
Capa_1
 62
7
100
AcDbPolyline
 90
2
 70
0
 10
124.168660
 20
123.680870
 30
0.0
 10
124.168660
 20
123.681330
 30
0.0
  0
SPLINE
  5
175
100
AcDbEntity
  8
Capa_1
 62
7
100
AcDbSpline
 70
8
 71
3
 72
8
 73
4
 74
0
 40
0
 40
0
 40
0
 40
0
 40
1
 40
1
 40
1
 40
1
 10
140.899000
 20
135.495400
 30
0.0
 10
137.885950
 20
140.004860
 30
0.0
 10
137.656180
 20
140.278000
 30
0.0
 10
136.970420
 20
140.165510
 30
0.0
  0
SPLINE
  5
176
100
AcDbEntity
  8
Capa_1
 62
7
100
AcDbSpline
 70
8
 71
3
 72
8
 73
4
 74
0
 40
0
 40
0
 40
0
 40
0
 40
1
 40
1
 40
1
 40
1
 10
136.970420
 20
140.165510
 30
0.0
 10
136.569820
 20
140.099810
 30
0.0
 10
134.098930
 20
139.911070
 30
0.0
 10
131.479550
 20
139.746130
 30
0.0
  0
SPLINE
  5
177
100
AcDbEntity
  8
Capa_1
 62
7
100
AcDbSpline
 70
8
 71
3
 72
8
 73
4
 74
0
 40
0
 40
0
 40
0
 40
0
 40
1
 40
1
 40
1
 40
1
 10
131.479550
 20
139.746130
 30
0.0
 10
128.860180
 20
139.581200
 30
0.0
 10
126.613470
 20
139.383890
 30
0.0
 10
126.486860
 20
139.307680
 30
0.0
  0
SPLINE
  5
178
100
AcDbEntity
  8
Capa_1
 62
7
100
AcDbSpline
 70
8
 71
3
 72
8
 73
4
 74
0
 40
0
 40
0
 40
0
 40
0
 40
1
 40
1
 40
1
 40
1
 10
126.486860
 20
139.307680
 30
0.0
 10
126.162850
 20
139.112620
 30
0.0
 10
121.562040
 20
129.668390
 30
0.0
 10
121.555750
 20
129.185420
 30
0.0
  0
SPLINE
  5
179
100
AcDbEntity
  8
Capa_1
 62
7
100
AcDbSpline
 70
8
 71
3
 72
8
 73
4
 74
0
 40
0
 40
0
 40
0
 40
0
 40
1
 40
1
 40
1
 40
1
 10
121.555750
 20
129.185420
 30
0.0
 10
121.552750
 20
128.967130
 30
0.0
 10
122.936990
 20
126.734710
 30
0.0
 10
124.631490
 20
124.224480
 30
0.0
  0
SPLINE
  5
17a
100
AcDbEntity
  8
Capa_1
 62
7
100
AcDbSpline
 70
8
 71
3
 72
8
 73
4
 74
0
 40
0
 40
0
 40
0
 40
0
 40
1
 40
1
 40
1
 40
1
 10
124.631490
 20
124.224480
 30
0.0
 10
127.312690
 20
120.252540
 30
0.0
 10
127.802300
 20
119.660920
 30
0.0
 10
128.405350
 20
119.664270
 30
0.0
  0
SPLINE
  5
17b
100
AcDbEntity
  8
Capa_1
 62
7
100
AcDbSpline
 70
8
 71
3
 72
8
 73
4
 74
0
 40
0
 40
0
 40
0
 40
0
 40
1
 40
1
 40
1
 40
1
 10
128.405350
 20
119.664270
 30
0.0
 10
128.786470
 20
119.666270
 30
0.0
 10
131.344310
 20
119.838730
 30
0.0
 10
134.089440
 20
120.047240
 30
0.0
  0
LWPOLYLINE
  5
17c
100
AcDbEntity
  8
Capa_1
 62
7
100
AcDbPolyline
 90
3
 70
0
 10
143.103270
 20
128.556550
 30
0.0
 10
144.099220
 20
130.705810
 30
0.0
 10
140.899000
 20
135.495400
 30
0.0
  0
SPLINE
  5
17d
100
AcDbEntity
  8
Capa_1
 62
7
100
AcDbSpline
 70
8
 71
3
 72
8
 73
4
 74
0
 40
0
 40
0
 40
0
 40
0
 40
1
 40
1
 40
1
 40
1
 10
103.959760
 20
133.373100
 30
0.0
 10
102.137740
 20
136.090340
 30
0.0
 10
99.589070
 20
139.935510
 30
0.0
 10
98.296054
 20
141.917920
 30
0.0
  0
LWPOLYLINE
  5
17e
100
AcDbEntity
  8
Capa_1
 62
7
100
AcDbPolyline
 90
1
 70
1
 10
134.089440
 20
120.047240
 30
0.0
  0
SPLINE
  5
17f
100
AcDbEntity
  8
Capa_1
 62
7
100
AcDbSpline
 70
8
 71
3
 72
8
 73
4
 74
0
 40
0
 40
0
 40
0
 40
0
 40
1
 40
1
 40
1
 40
1
 10
93.626468
 20
145.952390
 30
0.0
 10
92.351212
 20
146.188950
 30
0.0
 10
91.291564
 20
146.412450
 30
0.0
 10
91.271696
 20
146.449060
 30
0.0
  0
SPLINE
  5
180
100
AcDbEntity
  8
Capa_1
 62
7
100
AcDbSpline
 70
8
 71
3
 72
8
 73
4
 74
0
 40
0
 40
0
 40
0
 40
0
 40
1
 40
1
 40
1
 40
1
 10
91.271696
 20
146.449060
 30
0.0
 10
91.251826
 20
146.485660
 30
0.0
 10
90.752631
 20
147.289530
 30
0.0
 10
90.162370
 20
148.235420
 30
0.0
  0
SPLINE
  5
181
100
AcDbEntity
  8
Capa_1
 62
7
100
AcDbSpline
 70
8
 71
3
 72
8
 73
4
 74
0
 40
0
 40
0
 40
0
 40
0
 40
1
 40
1
 40
1
 40
1
 10
90.162370
 20
148.235420
 30
0.0
 10
89.572108
 20
149.181300
 30
0.0
 10
88.832195
 20
150.389080
 30
0.0
 10
88.518118
 20
150.919370
 30
0.0
  0
SPLINE
  5
182
100
AcDbEntity
  8
Capa_1
 62
7
100
AcDbSpline
 70
8
 71
3
 72
8
 73
4
 74
0
 40
0
 40
0
 40
0
 40
0
 40
1
 40
1
 40
1
 40
1
 10
88.518118
 20
150.919370
 30
0.0
 10
88.051393
 20
151.707400
 30
0.0
 10
87.570164
 20
152.035470
 30
0.0
 10
85.883942
 20
152.715190
 30
0.0
  0
SPLINE
  5
183
100
AcDbEntity
  8
Capa_1
 62
7
100
AcDbSpline
 70
8
 71
3
 72
8
 73
4
 74
0
 40
0
 40
0
 40
0
 40
0
 40
1
 40
1
 40
1
 40
1
 10
85.883942
 20
152.715190
 30
0.0
 10
83.986269
 20
153.480140
 30
0.0
 10
83.762455
 20
153.516560
 30
0.0
 10
83.093103
 20
153.169290
 30
0.0
  0
SPLINE
  5
184
100
AcDbEntity
  8
Capa_1
 62
7
100
AcDbSpline
 70
8
 71
3
 72
8
 73
4
 74
0
 40
0
 40
0
 40
0
 40
0
 40
1
 40
1
 40
1
 40
1
 10
83.093103
 20
153.169290
 30
0.0
 10
82.176908
 20
152.693970
 30
0.0
 10
81.377673
 20
152.892550
 30
0.0
 10
81.016491
 20
153.685250
 30
0.0
  0
SPLINE
  5
185
100
AcDbEntity
  8
Capa_1
 62
7
100
AcDbSpline
 70
8
 71
3
 72
8
 73
4
 74
0
 40
0
 40
0
 40
0
 40
0
 40
1
 40
1
 40
1
 40
1
 10
81.016491
 20
153.685250
 30
0.0
 10
80.640384
 20
154.510720
 30
0.0
 10
81.356455
 20
155.643750
 30
0.0
 10
82.254249
 20
155.643750
 30
0.0
  0
SPLINE
  5
186
100
AcDbEntity
  8
Capa_1
 62
7
100
AcDbSpline
 70
8
 71
3
 72
8
 73
4
 74
0
 40
0
 40
0
 40
0
 40
0
 40
1
 40
1
 40
1
 40
1
 10
82.254249
 20
155.643750
 30
0.0
 10
82.865612
 20
155.643750
 30
0.0
 10
83.722257
 20
155.037230
 30
0.0
 10
83.722257
 20
154.604370
 30
0.0
  0
SPLINE
  5
187
100
AcDbEntity
  8
Capa_1
 62
7
100
AcDbSpline
 70
8
 71
3
 72
8
 73
4
 74
0
 40
0
 40
0
 40
0
 40
0
 40
1
 40
1
 40
1
 40
1
 10
83.722257
 20
154.604370
 30
0.0
 10
83.722257
 20
154.490070
 30
0.0
 10
84.729618
 20
154.007090
 30
0.0
 10
85.960837
 20
153.531100
 30
0.0
  0
SPLINE
  5
188
100
AcDbEntity
  8
Capa_1
 62
7
100
AcDbSpline
 70
8
 71
3
 72
8
 73
4
 74
0
 40
0
 40
0
 40
0
 40
0
 40
1
 40
1
 40
1
 40
1
 10
85.960837
 20
153.531100
 30
0.0
 10
87.192056
 20
153.055100
 30
0.0
 10
88.362356
 20
152.472520
 30
0.0
 10
88.561504
 20
152.236470
 30
0.0
  0
SPLINE
  5
189
100
AcDbEntity
  8
Capa_1
 62
7
100
AcDbSpline
 70
8
 71
3
 72
8
 73
4
 74
0
 40
0
 40
0
 40
0
 40
0
 40
1
 40
1
 40
1
 40
1
 10
88.561504
 20
152.236470
 30
0.0
 10
88.760651
 20
152.000420
 30
0.0
 10
89.594676
 20
150.729310
 30
0.0
 10
90.414891
 20
149.411770
 30
0.0
  0
LWPOLYLINE
  5
18a
100
AcDbEntity
  8
Capa_1
 62
7
100
AcDbPolyline
 90
3
 70
0
 10
98.296054
 20
141.917920
 30
0.0
 10
95.945116
 20
145.522300
 30
0.0
 10
93.626468
 20
145.952390
 30
0.0
  0
SPLINE
  5
18b
100
AcDbEntity
  8
Capa_1
 62
7
100
AcDbSpline
 70
8
 71
3
 72
8
 73
4
 74
0
 40
0
 40
0
 40
0
 40
0
 40
1
 40
1
 40
1
 40
1
 10
93.502766
 20
146.752200
 30
0.0
 10
94.380883
 20
146.606970
 30
0.0
 10
95.099341
 20
146.536320
 30
0.0
 10
95.099341
 20
146.595190
 30
0.0
  0
SPLINE
  5
18c
100
AcDbEntity
  8
Capa_1
 62
7
100
AcDbSpline
 70
8
 71
3
 72
8
 73
4
 74
0
 40
0
 40
0
 40
0
 40
0
 40
1
 40
1
 40
1
 40
1
 10
95.099341
 20
146.595190
 30
0.0
 10
95.099341
 20
146.654090
 30
0.0
 10
94.774541
 20
147.280030
 30
0.0
 10
94.377563
 20
147.986230
 30
0.0
  0
SPLINE
  5
18d
100
AcDbEntity
  8
Capa_1
 62
7
100
AcDbSpline
 70
8
 71
3
 72
8
 73
4
 74
0
 40
0
 40
0
 40
0
 40
0
 40
1
 40
1
 40
1
 40
1
 10
94.377563
 20
147.986230
 30
0.0
 10
93.856034
 20
148.914010
 30
0.0
 10
93.472356
 20
149.291850
 30
0.0
 10
92.994631
 20
149.348140
 30
0.0
  0
SPLINE
  5
18e
100
AcDbEntity
  8
Capa_1
 62
7
100
AcDbSpline
 70
8
 71
3
 72
8
 73
4
 74
0
 40
0
 40
0
 40
0
 40
0
 40
1
 40
1
 40
1
 40
1
 10
92.994631
 20
149.348140
 30
0.0
 10
92.617466
 20
149.392540
 30
0.0
 10
92.201933
 20
149.691340
 30
0.0
 10
92.027229
 20
150.043690
 30
0.0
  0
SPLINE
  5
18f
100
AcDbEntity
  8
Capa_1
 62
7
100
AcDbSpline
 70
8
 71
3
 72
8
 73
4
 74
0
 40
0
 40
0
 40
0
 40
0
 40
1
 40
1
 40
1
 40
1
 10
92.027229
 20
150.043690
 30
0.0
 10
91.327627
 20
151.454670
 30
0.0
 10
92.626570
 20
152.671720
 30
0.0
 10
93.924457
 20
151.821310
 30
0.0
  0
SPLINE
  5
190
100
AcDbEntity
  8
Capa_1
 62
7
100
AcDbSpline
 70
8
 71
3
 72
8
 73
4
 74
0
 40
0
 40
0
 40
0
 40
0
 40
1
 40
1
 40
1
 40
1
 10
93.924457
 20
151.821310
 30
0.0
 10
94.500772
 20
151.443690
 30
0.0
 10
94.600101
 20
151.216710
 30
0.0
 10
94.490862
 20
150.527010
 30
0.0
  0
SPLINE
  5
191
100
AcDbEntity
  8
Capa_1
 62
7
100
AcDbSpline
 70
8
 71
3
 72
8
 73
4
 74
0
 40
0
 40
0
 40
0
 40
0
 40
1
 40
1
 40
1
 40
1
 10
94.490862
 20
150.527010
 30
0.0
 10
94.397252
 20
149.935980
 30
0.0
 10
94.556902
 20
149.341360
 30
0.0
 10
95.035112
 20
148.500000
 30
0.0
  0
SPLINE
  5
192
100
AcDbEntity
  8
Capa_1
 62
7
100
AcDbSpline
 70
8
 71
3
 72
8
 73
4
 74
0
 40
0
 40
0
 40
0
 40
0
 40
1
 40
1
 40
1
 40
1
 10
95.035112
 20
148.500000
 30
0.0
 10
95.733346
 20
147.271520
 30
0.0
 10
100.286770
 20
140.349630
 30
0.0
 10
100.673500
 20
139.928780
 30
0.0
  0
SPLINE
  5
193
100
AcDbEntity
  8
Capa_1
 62
7
100
AcDbSpline
 70
8
 71
3
 72
8
 73
4
 74
0
 40
0
 40
0
 40
0
 40
0
 40
1
 40
1
 40
1
 40
1
 10
100.673500
 20
139.928780
 30
0.0
 10
100.793210
 20
139.798520
 30
0.0
 10
101.952340
 20
141.893620
 30
0.0
 10
103.249350
 20
144.584550
 30
0.0
  0
SPLINE
  5
194
100
AcDbEntity
  8
Capa_1
 62
7
100
AcDbSpline
 70
8
 71
3
 72
8
 73
4
 74
0
 40
0
 40
0
 40
0
 40
0
 40
1
 40
1
 40
1
 40
1
 10
103.249350
 20
144.584550
 30
0.0
 10
105.892740
 20
150.068850
 30
0.0
 10
105.593770
 20
149.786260
 30
0.0
 10
108.824600
 20
149.854220
 30
0.0
  0
SPLINE
  5
195
100
AcDbEntity
  8
Capa_1
 62
7
100
AcDbSpline
 70
8
 71
3
 72
8
 73
4
 74
0
 40
0
 40
0
 40
0
 40
0
 40
1
 40
1
 40
1
 40
1
 10
108.824600
 20
149.854220
 30
0.0
 10
109.643160
 20
149.871420
 30
0.0
 10
110.649760
 20
149.960730
 30
0.0
 10
111.061500
 20
150.052660
 30
0.0
  0
LWPOLYLINE
  5
196
100
AcDbEntity
  8
Capa_1
 62
7
100
AcDbPolyline
 90
3
 70
0
 10
90.414891
 20
149.411770
 30
0.0
 10
91.906191
 20
147.016240
 30
0.0
 10
93.502766
 20
146.752200
 30
0.0
  0
SPLINE
  5
197
100
AcDbEntity
  8
Capa_1
 62
7
100
AcDbSpline
 70
8
 71
3
 72
8
 73
4
 74
0
 40
0
 40
0
 40
0
 40
0
 40
1
 40
1
 40
1
 40
1
 10
108.852530
 20
154.717710
 30
0.0
 10
107.225860
 20
157.191560
 30
0.0
 10
105.796450
 20
159.319940
 30
0.0
 10
105.676060
 20
159.447440
 30
0.0
  0
SPLINE
  5
198
100
AcDbEntity
  8
Capa_1
 62
7
100
AcDbSpline
 70
8
 71
3
 72
8
 73
4
 74
0
 40
0
 40
0
 40
0
 40
0
 40
1
 40
1
 40
1
 40
1
 10
105.676060
 20
159.447440
 30
0.0
 10
105.554200
 20
159.576490
 30
0.0
 10
104.152290
 20
158.777030
 30
0.0
 10
102.513590
 20
157.643990
 30
0.0
  0
SPLINE
  5
199
100
AcDbEntity
  8
Capa_1
 62
7
100
AcDbSpline
 70
8
 71
3
 72
8
 73
4
 74
0
 40
0
 40
0
 40
0
 40
0
 40
1
 40
1
 40
1
 40
1
 10
102.513590
 20
157.643990
 30
0.0
 10
100.894630
 20
156.524600
 30
0.0
 10
99.462821
 20
155.646380
 30
0.0
 10
99.331800
 20
155.692390
 30
0.0
  0
SPLINE
  5
19a
100
AcDbEntity
  8
Capa_1
 62
7
100
AcDbSpline
 70
8
 71
3
 72
8
 73
4
 74
0
 40
0
 40
0
 40
0
 40
0
 40
1
 40
1
 40
1
 40
1
 10
99.331800
 20
155.692390
 30
0.0
 10
99.200780
 20
155.738390
 30
0.0
 10
98.637599
 20
156.430890
 30
0.0
 10
98.080288
 20
157.231250
 30
0.0
  0
SPLINE
  5
19b
100
AcDbEntity
  8
Capa_1
 62
7
100
AcDbSpline
 70
8
 71
3
 72
8
 73
4
 74
0
 40
0
 40
0
 40
0
 40
0
 40
1
 40
1
 40
1
 40
1
 10
98.080288
 20
157.231250
 30
0.0
 10
97.453143
 20
158.131900
 30
0.0
 10
96.840833
 20
158.719000
 30
0.0
 10
96.473525
 20
158.771860
 30
0.0
  0
SPLINE
  5
19c
100
AcDbEntity
  8
Capa_1
 62
7
100
AcDbSpline
 70
8
 71
3
 72
8
 73
4
 74
0
 40
0
 40
0
 40
0
 40
0
 40
1
 40
1
 40
1
 40
1
 10
96.473525
 20
158.771860
 30
0.0
 10
96.147117
 20
158.818860
 30
0.0
 10
95.690702
 20
159.146250
 30
0.0
 10
95.459269
 20
159.499460
 30
0.0
  0
SPLINE
  5
19d
100
AcDbEntity
  8
Capa_1
 62
7
100
AcDbSpline
 70
8
 71
3
 72
8
 73
4
 74
0
 40
0
 40
0
 40
0
 40
0
 40
1
 40
1
 40
1
 40
1
 10
95.459269
 20
159.499460
 30
0.0
 10
95.073723
 20
160.087880
 30
0.0
 10
95.074780
 20
160.197060
 30
0.0
 10
95.471889
 20
160.803130
 30
0.0
  0
SPLINE
  5
19e
100
AcDbEntity
  8
Capa_1
 62
7
100
AcDbSpline
 70
8
 71
3
 72
8
 73
4
 74
0
 40
0
 40
0
 40
0
 40
0
 40
1
 40
1
 40
1
 40
1
 10
95.471889
 20
160.803130
 30
0.0
 10
95.766643
 20
161.252980
 30
0.0
 10
96.146907
 20
161.464580
 30
0.0
 10
96.660547
 20
161.464580
 30
0.0
  0
SPLINE
  5
19f
100
AcDbEntity
  8
Capa_1
 62
7
100
AcDbSpline
 70
8
 71
3
 72
8
 73
4
 74
0
 40
0
 40
0
 40
0
 40
0
 40
1
 40
1
 40
1
 40
1
 10
96.660547
 20
161.464580
 30
0.0
 10
97.621810
 20
161.464580
 30
0.0
 10
98.111977
 20
160.877170
 30
0.0
 10
97.928763
 20
159.944750
 30
0.0
  0
SPLINE
  5
1a0
100
AcDbEntity
  8
Capa_1
 62
7
100
AcDbSpline
 70
8
 71
3
 72
8
 73
4
 74
0
 40
0
 40
0
 40
0
 40
0
 40
1
 40
1
 40
1
 40
1
 10
97.928763
 20
159.944750
 30
0.0
 10
97.752983
 20
159.050160
 30
0.0
 10
99.193829
 20
156.592190
 30
0.0
 10
99.765433
 20
156.811530
 30
0.0
  0
SPLINE
  5
1a1
100
AcDbEntity
  8
Capa_1
 62
7
100
AcDbSpline
 70
8
 71
3
 72
8
 73
4
 74
0
 40
0
 40
0
 40
0
 40
0
 40
1
 40
1
 40
1
 40
1
 10
99.765433
 20
156.811530
 30
0.0
 10
100.204030
 20
156.979840
 30
0.0
 10
104.053680
 20
159.537850
 30
0.0
 10
104.674240
 20
160.073330
 30
0.0
  0
SPLINE
  5
1a2
100
AcDbEntity
  8
Capa_1
 62
7
100
AcDbSpline
 70
8
 71
3
 72
8
 73
4
 74
0
 40
0
 40
0
 40
0
 40
0
 40
1
 40
1
 40
1
 40
1
 10
104.674240
 20
160.073330
 30
0.0
 10
105.085590
 20
160.428290
 30
0.0
 10
104.961750
 20
160.697980
 30
0.0
 10
103.112060
 20
163.475260
 30
0.0
  0
SPLINE
  5
1a3
100
AcDbEntity
  8
Capa_1
 62
7
100
AcDbSpline
 70
8
 71
3
 72
8
 73
4
 74
0
 40
0
 40
0
 40
0
 40
0
 40
1
 40
1
 40
1
 40
1
 10
103.112060
 20
163.475260
 30
0.0
 10
101.516640
 20
165.870750
 30
0.0
 10
100.977260
 20
166.491670
 30
0.0
 10
100.491780
 20
166.491670
 30
0.0
  0
SPLINE
  5
1a4
100
AcDbEntity
  8
Capa_1
 62
7
100
AcDbSpline
 70
8
 71
3
 72
8
 73
4
 74
0
 40
0
 40
0
 40
0
 40
0
 40
1
 40
1
 40
1
 40
1
 10
100.491780
 20
166.491670
 30
0.0
 10
99.457869
 20
166.491670
 30
0.0
 10
98.973010
 20
167.946280
 30
0.0
 10
99.748452
 20
168.721730
 30
0.0
  0
SPLINE
  5
1a5
100
AcDbEntity
  8
Capa_1
 62
7
100
AcDbSpline
 70
8
 71
3
 72
8
 73
4
 74
0
 40
0
 40
0
 40
0
 40
0
 40
1
 40
1
 40
1
 40
1
 10
99.748452
 20
168.721730
 30
0.0
 10
100.742420
 20
169.715700
 30
0.0
 10
102.347340
 20
168.751130
 30
0.0
 10
102.092220
 20
167.313110
 30
0.0
  0
SPLINE
  5
1a6
100
AcDbEntity
  8
Capa_1
 62
7
100
AcDbSpline
 70
8
 71
3
 72
8
 73
4
 74
0
 40
0
 40
0
 40
0
 40
0
 40
1
 40
1
 40
1
 40
1
 10
102.092220
 20
167.313110
 30
0.0
 10
101.993920
 20
166.758960
 30
0.0
 10
103.026800
 20
165.017190
 30
0.0
 10
107.364820
 20
158.421880
 30
0.0
  0
LWPOLYLINE
  5
1a7
100
AcDbEntity
  8
Capa_1
 62
7
100
AcDbPolyline
 90
3
 70
0
 10
111.061500
 20
150.052660
 30
0.0
 10
111.810110
 20
150.219790
 30
0.0
 10
108.852530
 20
154.717710
 30
0.0
  0
SPLINE
  5
1a8
100
AcDbEntity
  8
Capa_1
 62
7
100
AcDbSpline
 70
8
 71
3
 72
8
 73
4
 74
0
 40
0
 40
0
 40
0
 40
0
 40
1
 40
1
 40
1
 40
1
 10
115.339970
 20
129.017160
 30
0.0
 10
113.157160
 20
128.851870
 30
0.0
 10
110.449010
 20
128.652730
 30
0.0
 10
109.321870
 20
128.574630
 30
0.0
  0
LWPOLYLINE
  5
1a9
100
AcDbEntity
  8
Capa_1
 62
7
100
AcDbPolyline
 90
9
 70
0
 10
107.364820
 20
158.421880
 30
0.0
 10
112.759680
 20
150.219790
 30
0.0
 10
115.397130
 20
150.315290
 30
0.0
 10
118.034570
 20
150.410790
 30
0.0
 10
121.424470
 20
145.367470
 30
0.0
 10
124.814370
 20
140.324140
 30
0.0
 10
122.061540
 20
134.820910
 30
0.0
 10
119.308720
 20
129.317680
 30
0.0
 10
115.339970
 20
129.017160
 30
0.0
  0
SPLINE
  5
1aa
100
AcDbEntity
  8
Capa_1
 62
7
100
AcDbSpline
 70
8
 71
3
 72
8
 73
4
 74
0
 40
0
 40
0
 40
0
 40
0
 40
1
 40
1
 40
1
 40
1
 10
113.830970
 20
129.579750
 30
0.0
 10
116.493520
 20
129.790650
 30
0.0
 10
118.755710
 20
130.016330
 30
0.0
 10
118.858060
 20
130.081250
 30
0.0
  0
SPLINE
  5
1ab
100
AcDbEntity
  8
Capa_1
 62
7
100
AcDbSpline
 70
8
 71
3
 72
8
 73
4
 74
0
 40
0
 40
0
 40
0
 40
0
 40
1
 40
1
 40
1
 40
1
 10
118.858060
 20
130.081250
 30
0.0
 10
118.960400
 20
130.146150
 30
0.0
 10
120.161770
 20
132.449470
 30
0.0
 10
121.527770
 20
135.199700
 30
0.0
  0
LWPOLYLINE
  5
1ac
100
AcDbEntity
  8
Capa_1
 62
7
100
AcDbPolyline
 90
3
 70
0
 10
109.321870
 20
128.574630
 30
0.0
 10
107.272520
 20
128.432620
 30
0.0
 10
103.959760
 20
133.373100
 30
0.0
  0
SPLINE
  5
1ad
100
AcDbEntity
  8
Capa_1
 62
7
100
AcDbSpline
 70
8
 71
3
 72
8
 73
4
 74
0
 40
0
 40
0
 40
0
 40
0
 40
1
 40
1
 40
1
 40
1
 10
116.184840
 20
149.705180
 30
0.0
 10
114.576860
 20
149.527220
 30
0.0
 10
107.681780
 20
149.031810
 30
0.0
 10
106.791220
 20
149.030240
 30
0.0
  0
SPLINE
  5
1ae
100
AcDbEntity
  8
Capa_1
 62
7
100
AcDbSpline
 70
8
 71
3
 72
8
 73
4
 74
0
 40
0
 40
0
 40
0
 40
0
 40
1
 40
1
 40
1
 40
1
 10
106.791220
 20
149.030240
 30
0.0
 10
106.258650
 20
149.029310
 30
0.0
 10
105.858560
 20
148.361840
 30
0.0
 10
103.682620
 20
143.844130
 30
0.0
  0
SPLINE
  5
1af
100
AcDbEntity
  8
Capa_1
 62
7
100
AcDbSpline
 70
8
 71
3
 72
8
 73
4
 74
0
 40
0
 40
0
 40
0
 40
0
 40
1
 40
1
 40
1
 40
1
 10
103.682620
 20
143.844130
 30
0.0
 10
102.309070
 20
140.992350
 30
0.0
 10
101.265520
 20
138.521810
 30
0.0
 10
101.363620
 20
138.354020
 30
0.0
  0
SPLINE
  5
1b0
100
AcDbEntity
  8
Capa_1
 62
7
100
AcDbSpline
 70
8
 71
3
 72
8
 73
4
 74
0
 40
0
 40
0
 40
0
 40
0
 40
1
 40
1
 40
1
 40
1
 10
101.363620
 20
138.354020
 30
0.0
 10
101.461720
 20
138.186240
 30
0.0
 10
102.898140
 20
136.054660
 30
0.0
 10
104.555660
 20
133.617190
 30
0.0
  0
SPLINE
  5
1b1
100
AcDbEntity
  8
Capa_1
 62
7
100
AcDbSpline
 70
8
 71
3
 72
8
 73
4
 74
0
 40
0
 40
0
 40
0
 40
0
 40
1
 40
1
 40
1
 40
1
 10
104.555660
 20
133.617190
 30
0.0
 10
107.204720
 20
129.721600
 30
0.0
 10
107.655270
 20
129.186070
 30
0.0
 10
108.279650
 20
129.190850
 30
0.0
  0
SPLINE
  5
1b2
100
AcDbEntity
  8
Capa_1
 62
7
100
AcDbSpline
 70
8
 71
3
 72
8
 73
4
 74
0
 40
0
 40
0
 40
0
 40
0
 40
1
 40
1
 40
1
 40
1
 10
108.279650
 20
129.190850
 30
0.0
 10
108.670330
 20
129.193850
 30
0.0
 10
111.168420
 20
129.368850
 30
0.0
 10
113.830970
 20
129.579750
 30
0.0
  0
LWPOLYLINE
  5
1b3
100
AcDbEntity
  8
Capa_1
 62
7
100
AcDbPolyline
 90
5
 70
0
 10
121.527770
 20
135.199700
 30
0.0
 10
124.011400
 20
140.200110
 30
0.0
 10
120.785140
 20
145.028670
 30
0.0
 10
117.558880
 20
149.857240
 30
0.0
 10
116.184840
 20
149.705180
 30
0.0
  0
SPLINE
  5
1b4
100
AcDbEntity
  8
Capa_1
 62
7
100
AcDbSpline
 70
8
 71
3
 72
8
 73
4
 74
0
 40
0
 40
0
 40
0
 40
0
 40
1
 40
1
 40
1
 40
1
 10
93.687569
 20
150.502160
 30
0.0
 10
93.775089
 20
150.730220
 30
0.0
 10
93.716859
 20
151.046650
 30
0.0
 10
93.558187
 20
151.205320
 30
0.0
  0
SPLINE
  5
1b5
100
AcDbEntity
  8
Capa_1
 62
7
100
AcDbSpline
 70
8
 71
3
 72
8
 73
4
 74
0
 40
0
 40
0
 40
0
 40
0
 40
1
 40
1
 40
1
 40
1
 10
93.558187
 20
151.205320
 30
0.0
 10
93.176169
 20
151.587340
 30
0.0
 10
92.428080
 20
150.990790
 30
0.0
 10
92.629834
 20
150.465030
 30
0.0
  0
SPLINE
  5
1b6
100
AcDbEntity
  8
Capa_1
 62
7
100
AcDbSpline
 70
8
 71
3
 72
8
 73
4
 74
0
 40
0
 40
0
 40
0
 40
0
 40
1
 40
1
 40
1
 40
1
 10
92.629834
 20
150.465030
 30
0.0
 10
92.823383
 20
149.960650
 30
0.0
 10
93.488735
 20
149.984010
 30
0.0
 10
93.687569
 20
150.502130
 30
0.0
  0
LWPOLYLINE
  5
1b7
100
AcDbEntity
  8
Capa_1
 62
7
100
AcDbPolyline
 90
1
 70
1
 10
113.830970
 20
129.579750
 30
0.0
  0
SPLINE
  5
1b8
100
AcDbEntity
  8
Capa_1
 62
7
100
AcDbSpline
 70
8
 71
3
 72
8
 73
4
 74
0
 40
0
 40
0
 40
0
 40
0
 40
1
 40
1
 40
1
 40
1
 10
82.928507
 20
154.225150
 30
0.0
 10
82.928507
 20
154.723400
 30
0.0
 10
82.176034
 20
154.997110
 30
0.0
 10
81.810686
 20
154.631760
 30
0.0
  0
SPLINE
  5
1b9
100
AcDbEntity
  8
Capa_1
 62
7
100
AcDbSpline
 70
8
 71
3
 72
8
 73
4
 74
0
 40
0
 40
0
 40
0
 40
0
 40
1
 40
1
 40
1
 40
1
 10
81.810686
 20
154.631760
 30
0.0
 10
81.602406
 20
154.423480
 30
0.0
 10
81.612730
 20
154.234160
 30
0.0
 10
81.847816
 20
153.950900
 30
0.0
  0
SPLINE
  5
1ba
100
AcDbEntity
  8
Capa_1
 62
7
100
AcDbSpline
 70
8
 71
3
 72
8
 73
4
 74
0
 40
0
 40
0
 40
0
 40
0
 40
1
 40
1
 40
1
 40
1
 10
81.847816
 20
153.950900
 30
0.0
 10
82.225780
 20
153.495480
 30
0.0
 10
82.928508
 20
153.673820
 30
0.0
 10
82.928507
 20
154.225150
 30
0.0
  0
LWPOLYLINE
  5
1bb
100
AcDbEntity
  8
Capa_1
 62
7
100
AcDbPolyline
 90
1
 70
1
 10
93.687569
 20
150.502130
 30
0.0
  0
SPLINE
  5
1bc
100
AcDbEntity
  8
Capa_1
 62
7
100
AcDbSpline
 70
8
 71
3
 72
8
 73
4
 74
0
 40
0
 40
0
 40
0
 40
0
 40
1
 40
1
 40
1
 40
1
 10
97.166225
 20
160.210850
 30
0.0
 10
97.226695
 20
160.524850
 30
0.0
 10
97.085665
 20
160.670830
 30
0.0
 10
96.721857
 20
160.670830
 30
0.0
  0
SPLINE
  5
1bd
100
AcDbEntity
  8
Capa_1
 62
7
100
AcDbSpline
 70
8
 71
3
 72
8
 73
4
 74
0
 40
0
 40
0
 40
0
 40
0
 40
1
 40
1
 40
1
 40
1
 10
96.721857
 20
160.670830
 30
0.0
 10
96.115075
 20
160.670830
 30
0.0
 10
95.779046
 20
160.275670
 30
0.0
 10
96.034437
 20
159.862430
 30
0.0
  0
SPLINE
  5
1be
100
AcDbEntity
  8
Capa_1
 62
7
100
AcDbSpline
 70
8
 71
3
 72
8
 73
4
 74
0
 40
0
 40
0
 40
0
 40
0
 40
1
 40
1
 40
1
 40
1
 10
96.034437
 20
159.862430
 30
0.0
 10
96.291949
 20
159.445770
 30
0.0
 10
97.064696
 20
159.683660
 30
0.0
 10
97.166225
 20
160.210850
 30
0.0
  0
LWPOLYLINE
  5
1bf
100
AcDbEntity
  8
Capa_1
 62
7
100
AcDbPolyline
 90
1
 70
1
 10
82.928507
 20
154.225150
 30
0.0
  0
SPLINE
  5
1c0
100
AcDbEntity
  8
Capa_1
 62
7
100
AcDbSpline
 70
8
 71
3
 72
8
 73
4
 74
0
 40
0
 40
0
 40
0
 40
0
 40
1
 40
1
 40
1
 40
1
 10
101.332740
 20
168.053780
 30
0.0
 10
101.234140
 20
168.213260
 30
0.0
 10
100.922430
 20
168.343750
 30
0.0
 10
100.639980
 20
168.343750
 30
0.0
  0
SPLINE
  5
1c1
100
AcDbEntity
  8
Capa_1
 62
7
100
AcDbSpline
 70
8
 71
3
 72
8
 73
4
 74
0
 40
0
 40
0
 40
0
 40
0
 40
1
 40
1
 40
1
 40
1
 10
100.639980
 20
168.343750
 30
0.0
 10
100.060700
 20
168.343750
 30
0.0
 10
99.910475
 20
167.409580
 30
0.0
 10
100.457150
 20
167.206900
 30
0.0
  0
SPLINE
  5
1c2
100
AcDbEntity
  8
Capa_1
 62
7
100
AcDbSpline
 70
8
 71
3
 72
8
 73
4
 74
0
 40
0
 40
0
 40
0
 40
0
 40
1
 40
1
 40
1
 40
1
 10
100.457150
 20
167.206900
 30
0.0
 10
100.896470
 20
167.044020
 30
0.0
 10
101.560100
 20
167.685900
 30
0.0
 10
101.332740
 20
168.053780
 30
0.0
  0
LWPOLYLINE
  5
1c3
100
AcDbEntity
  8
Capa_1
 62
7
100
AcDbPolyline
 90
1
 70
1
 10
97.166225
 20
160.210850
 30
0.0
  0
SPLINE
  5
1c4
100
AcDbEntity
  8
Capa_1
 62
7
100
AcDbSpline
 70
8
 71
3
 72
8
 73
4
 74
0
 40
0
 40
0
 40
0
 40
0
 40
1
 40
1
 40
1
 40
1
 10
125.458170
 20
141.928010
 30
0.0
 10
125.095010
 20
142.413910
 30
0.0
 10
123.524230
 20
144.731300
 30
0.0
 10
121.967530
 20
147.077770
 30
0.0
  0
LWPOLYLINE
  5
1c5
100
AcDbEntity
  8
Capa_1
 62
7
100
AcDbPolyline
 90
1
 70
1
 10
101.332740
 20
168.053780
 30
0.0
  0
SPLINE
  5
1c6
100
AcDbEntity
  8
Capa_1
 62
7
100
AcDbSpline
 70
8
 71
3
 72
8
 73
4
 74
0
 40
0
 40
0
 40
0
 40
0
 40
1
 40
1
 40
1
 40
1
 10
120.215130
 20
153.488040
 30
0.0
 10
120.808010
 20
154.667220
 30
0.0
 10
121.293090
 20
155.756310
 30
0.0
 10
121.293090
 20
155.908250
 30
0.0
  0
SPLINE
  5
1c7
100
AcDbEntity
  8
Capa_1
 62
7
100
AcDbSpline
 70
8
 71
3
 72
8
 73
4
 74
0
 40
0
 40
0
 40
0
 40
0
 40
1
 40
1
 40
1
 40
1
 10
121.293090
 20
155.908250
 30
0.0
 10
121.293090
 20
156.426820
 30
0.0
 10
115.448320
 20
164.930070
 30
0.0
 10
114.996570
 20
165.068710
 30
0.0
  0
SPLINE
  5
1c8
100
AcDbEntity
  8
Capa_1
 62
7
100
AcDbSpline
 70
8
 71
3
 72
8
 73
4
 74
0
 40
0
 40
0
 40
0
 40
0
 40
1
 40
1
 40
1
 40
1
 10
114.996570
 20
165.068710
 30
0.0
 10
114.046250
 20
165.360370
 30
0.0
 10
113.749590
 20
165.643160
 30
0.0
 10
113.667200
 20
166.335920
 30
0.0
  0
SPLINE
  5
1c9
100
AcDbEntity
  8
Capa_1
 62
7
100
AcDbSpline
 70
8
 71
3
 72
8
 73
4
 74
0
 40
0
 40
0
 40
0
 40
0
 40
1
 40
1
 40
1
 40
1
 10
113.667200
 20
166.335920
 30
0.0
 10
113.556650
 20
167.265470
 30
0.0
 10
114.030460
 20
167.814580
 30
0.0
 10
114.943090
 20
167.814580
 30
0.0
  0
SPLINE
  5
1ca
100
AcDbEntity
  8
Capa_1
 62
7
100
AcDbSpline
 70
8
 71
3
 72
8
 73
4
 74
0
 40
0
 40
0
 40
0
 40
0
 40
1
 40
1
 40
1
 40
1
 10
114.943090
 20
167.814580
 30
0.0
 10
115.897730
 20
167.814580
 30
0.0
 10
116.356040
 20
167.225040
 30
0.0
 10
116.204430
 20
166.192060
 30
0.0
  0
SPLINE
  5
1cb
100
AcDbEntity
  8
Capa_1
 62
7
100
AcDbSpline
 70
8
 71
3
 72
8
 73
4
 74
0
 40
0
 40
0
 40
0
 40
0
 40
1
 40
1
 40
1
 40
1
 10
116.204430
 20
166.192060
 30
0.0
 10
116.104100
 20
165.508430
 30
0.0
 10
116.342820
 20
164.979930
 30
0.0
 10
117.531190
 20
163.254770
 30
0.0
  0
LWPOLYLINE
  5
1cc
100
AcDbEntity
  8
Capa_1
 62
7
100
AcDbPolyline
 90
3
 70
0
 10
121.967530
 20
147.077770
 30
0.0
 10
119.137170
 20
151.344080
 30
0.0
 10
120.215130
 20
153.488040
 30
0.0
  0
SPLINE
  5
1cd
100
AcDbEntity
  8
Capa_1
 62
7
100
AcDbSpline
 70
8
 71
3
 72
8
 73
4
 74
0
 40
0
 40
0
 40
0
 40
0
 40
1
 40
1
 40
1
 40
1
 10
120.268990
 20
164.136530
 30
0.0
 10
120.977770
 20
165.778520
 30
0.0
 10
121.557680
 20
167.219700
 30
0.0
 10
121.557680
 20
167.339150
 30
0.0
  0
SPLINE
  5
1ce
100
AcDbEntity
  8
Capa_1
 62
7
100
AcDbSpline
 70
8
 71
3
 72
8
 73
4
 74
0
 40
0
 40
0
 40
0
 40
0
 40
1
 40
1
 40
1
 40
1
 10
121.557680
 20
167.339150
 30
0.0
 10
121.557680
 20
167.458610
 30
0.0
 10
121.001360
 20
168.392970
 30
0.0
 10
120.321410
 20
169.415520
 30
0.0
  0
LWPOLYLINE
  5
1cf
100
AcDbEntity
  8
Capa_1
 62
7
100
AcDbPolyline
 90
3
 70
0
 10
117.531190
 20
163.254770
 30
0.0
 10
118.980300
 20
161.151100
 30
0.0
 10
120.268990
 20
164.136530
 30
0.0
  0
SPLINE
  5
1d0
100
AcDbEntity
  8
Capa_1
 62
7
100
AcDbSpline
 70
8
 71
3
 72
8
 73
4
 74
0
 40
0
 40
0
 40
0
 40
0
 40
1
 40
1
 40
1
 40
1
 10
119.626880
 20
174.770160
 30
0.0
 10
120.088220
 20
177.746860
 30
0.0
 10
120.114620
 20
178.327620
 30
0.0
 10
119.804810
 20
178.683330
 30
0.0
  0
SPLINE
  5
1d1
100
AcDbEntity
  8
Capa_1
 62
7
100
AcDbSpline
 70
8
 71
3
 72
8
 73
4
 74
0
 40
0
 40
0
 40
0
 40
0
 40
1
 40
1
 40
1
 40
1
 10
119.804810
 20
178.683330
 30
0.0
 10
119.214400
 20
179.361230
 30
0.0
 10
119.358010
 20
180.448000
 30
0.0
 10
120.102470
 20
180.935790
 30
0.0
  0
SPLINE
  5
1d2
100
AcDbEntity
  8
Capa_1
 62
7
100
AcDbSpline
 70
8
 71
3
 72
8
 73
4
 74
0
 40
0
 40
0
 40
0
 40
0
 40
1
 40
1
 40
1
 40
1
 10
120.102470
 20
180.935790
 30
0.0
 10
120.715210
 20
181.337270
 30
0.0
 10
120.812640
 20
181.337270
 30
0.0
 10
121.425390
 20
180.935790
 30
0.0
  0
SPLINE
  5
1d3
100
AcDbEntity
  8
Capa_1
 62
7
100
AcDbSpline
 70
8
 71
3
 72
8
 73
4
 74
0
 40
0
 40
0
 40
0
 40
0
 40
1
 40
1
 40
1
 40
1
 10
121.425390
 20
180.935790
 30
0.0
 10
122.265360
 20
180.385420
 30
0.0
 10
122.295150
 20
179.315830
 30
0.0
 10
121.491490
 20
178.560550
 30
0.0
  0
SPLINE
  5
1d4
100
AcDbEntity
  8
Capa_1
 62
7
100
AcDbSpline
 70
8
 71
3
 72
8
 73
4
 74
0
 40
0
 40
0
 40
0
 40
0
 40
1
 40
1
 40
1
 40
1
 10
121.491490
 20
178.560550
 30
0.0
 10
121.010080
 20
178.108090
 30
0.0
 10
120.799860
 20
177.381400
 30
0.0
 10
120.392720
 20
174.762330
 30
0.0
  0
LWPOLYLINE
  5
1d5
100
AcDbEntity
  8
Capa_1
 62
7
100
AcDbPolyline
 90
3
 70
0
 10
120.321410
 20
169.415520
 30
0.0
 10
119.085140
 20
171.274690
 30
0.0
 10
119.626880
 20
174.770160
 30
0.0
  0
SPLINE
  5
1d6
100
AcDbEntity
  8
Capa_1
 62
7
100
AcDbSpline
 70
8
 71
3
 72
8
 73
4
 74
0
 40
0
 40
0
 40
0
 40
0
 40
1
 40
1
 40
1
 40
1
 10
121.164420
 20
169.605950
 30
0.0
 10
121.865760
 20
168.551240
 30
0.0
 10
122.438300
 20
167.567880
 30
0.0
 10
122.436730
 20
167.420710
 30
0.0
  0
SPLINE
  5
1d7
100
AcDbEntity
  8
Capa_1
 62
7
100
AcDbSpline
 70
8
 71
3
 72
8
 73
4
 74
0
 40
0
 40
0
 40
0
 40
0
 40
1
 40
1
 40
1
 40
1
 10
122.436730
 20
167.420710
 30
0.0
 10
122.434730
 20
167.273540
 30
0.0
 10
121.763330
 20
165.624330
 30
0.0
 10
120.943780
 20
163.755810
 30
0.0
  0
LWPOLYLINE
  5
1d8
100
AcDbEntity
  8
Capa_1
 62
7
100
AcDbPolyline
 90
3
 70
0
 10
120.392720
 20
174.762330
 30
0.0
 10
119.889270
 20
171.523610
 30
0.0
 10
121.164420
 20
169.605950
 30
0.0
  0
SPLINE
  5
1d9
100
AcDbEntity
  8
Capa_1
 62
7
100
AcDbSpline
 70
8
 71
3
 72
8
 73
4
 74
0
 40
0
 40
0
 40
0
 40
0
 40
1
 40
1
 40
1
 40
1
 10
120.515520
 20
158.794880
 30
0.0
 10
121.099530
 20
157.934880
 30
0.0
 10
121.665110
 20
157.231250
 30
0.0
 10
121.772370
 20
157.231250
 30
0.0
  0
SPLINE
  5
1da
100
AcDbEntity
  8
Capa_1
 62
7
100
AcDbSpline
 70
8
 71
3
 72
8
 73
4
 74
0
 40
0
 40
0
 40
0
 40
0
 40
1
 40
1
 40
1
 40
1
 10
121.772370
 20
157.231250
 30
0.0
 10
121.879620
 20
157.231250
 30
0.0
 10
122.523500
 20
158.350780
 30
0.0
 10
123.203210
 20
159.719080
 30
0.0
  0
SPLINE
  5
1db
100
AcDbEntity
  8
Capa_1
 62
7
100
AcDbSpline
 70
8
 71
3
 72
8
 73
4
 74
0
 40
0
 40
0
 40
0
 40
0
 40
1
 40
1
 40
1
 40
1
 10
123.203210
 20
159.719080
 30
0.0
 10
124.407190
 20
162.142810
 30
0.0
 10
124.466680
 20
162.211590
 30
0.0
 10
125.511880
 20
162.388170
 30
0.0
  0
SPLINE
  5
1dc
100
AcDbEntity
  8
Capa_1
 62
7
100
AcDbSpline
 70
8
 71
3
 72
8
 73
4
 74
0
 40
0
 40
0
 40
0
 40
0
 40
1
 40
1
 40
1
 40
1
 10
125.511880
 20
162.388170
 30
0.0
 10
126.101940
 20
162.487870
 30
0.0
 10
126.584720
 20
162.603940
 30
0.0
 10
126.584720
 20
162.646120
 30
0.0
  0
SPLINE
  5
1dd
100
AcDbEntity
  8
Capa_1
 62
7
100
AcDbSpline
 70
8
 71
3
 72
8
 73
4
 74
0
 40
0
 40
0
 40
0
 40
0
 40
1
 40
1
 40
1
 40
1
 10
126.584720
 20
162.646120
 30
0.0
 10
126.584720
 20
162.717420
 30
0.0
 10
127.774840
 20
168.573280
 30
0.0
 10
128.045570
 20
169.834100
 30
0.0
  0
SPLINE
  5
1de
100
AcDbEntity
  8
Capa_1
 62
7
100
AcDbSpline
 70
8
 71
3
 72
8
 73
4
 74
0
 40
0
 40
0
 40
0
 40
0
 40
1
 40
1
 40
1
 40
1
 10
128.045570
 20
169.834100
 30
0.0
 10
128.125770
 20
170.207580
 30
0.0
 10
129.174200
 20
171.031400
 30
0.0
 10
131.146040
 20
172.270340
 30
0.0
  0
SPLINE
  5
1df
100
AcDbEntity
  8
Capa_1
 62
7
100
AcDbSpline
 70
8
 71
3
 72
8
 73
4
 74
0
 40
0
 40
0
 40
0
 40
0
 40
1
 40
1
 40
1
 40
1
 10
131.146040
 20
172.270340
 30
0.0
 10
133.382280
 20
173.675400
 30
0.0
 10
134.224330
 20
174.359530
 30
0.0
 10
134.522220
 20
175.013330
 30
0.0
  0
SPLINE
  5
1e0
100
AcDbEntity
  8
Capa_1
 62
7
100
AcDbSpline
 70
8
 71
3
 72
8
 73
4
 74
0
 40
0
 40
0
 40
0
 40
0
 40
1
 40
1
 40
1
 40
1
 10
134.522220
 20
175.013330
 30
0.0
 10
135.206840
 20
176.515900
 30
0.0
 10
137.168060
 20
176.171470
 30
0.0
 10
137.168060
 20
174.548660
 30
0.0
  0
SPLINE
  5
1e1
100
AcDbEntity
  8
Capa_1
 62
7
100
AcDbSpline
 70
8
 71
3
 72
8
 73
4
 74
0
 40
0
 40
0
 40
0
 40
0
 40
1
 40
1
 40
1
 40
1
 10
137.168060
 20
174.548660
 30
0.0
 10
137.168060
 20
173.680420
 30
0.0
 10
136.038490
 20
172.939110
 30
0.0
 10
135.250970
 20
173.290510
 30
0.0
  0
SPLINE
  5
1e2
100
AcDbEntity
  8
Capa_1
 62
7
100
AcDbSpline
 70
8
 71
3
 72
8
 73
4
 74
0
 40
0
 40
0
 40
0
 40
0
 40
1
 40
1
 40
1
 40
1
 10
135.250970
 20
173.290510
 30
0.0
 10
134.771500
 20
173.504460
 30
0.0
 10
134.252020
 20
173.283510
 30
0.0
 10
132.151200
 20
171.973610
 30
0.0
  0
SPLINE
  5
1e3
100
AcDbEntity
  8
Capa_1
 62
7
100
AcDbSpline
 70
8
 71
3
 72
8
 73
4
 74
0
 40
0
 40
0
 40
0
 40
0
 40
1
 40
1
 40
1
 40
1
 10
132.151200
 20
171.973610
 30
0.0
 10
130.763130
 20
171.107960
 30
0.0
 10
129.431590
 20
170.205000
 30
0.0
 10
129.192230
 20
169.967040
 30
0.0
  0
SPLINE
  5
1e4
100
AcDbEntity
  8
Capa_1
 62
7
100
AcDbSpline
 70
8
 71
3
 72
8
 73
4
 74
0
 40
0
 40
0
 40
0
 40
0
 40
1
 40
1
 40
1
 40
1
 10
129.192230
 20
169.967040
 30
0.0
 10
128.776860
 20
169.554090
 30
0.0
 10
127.193010
 20
162.884760
 30
0.0
 10
127.449420
 20
162.628350
 30
0.0
  0
SPLINE
  5
1e5
100
AcDbEntity
  8
Capa_1
 62
7
100
AcDbSpline
 70
8
 71
3
 72
8
 73
4
 74
0
 40
0
 40
0
 40
0
 40
0
 40
1
 40
1
 40
1
 40
1
 10
127.449420
 20
162.628350
 30
0.0
 10
127.514420
 20
162.563350
 30
0.0
 10
129.162150
 20
162.631350
 30
0.0
 10
131.111050
 20
162.780490
 30
0.0
  0
SPLINE
  5
1e6
100
AcDbEntity
  8
Capa_1
 62
7
100
AcDbSpline
 70
8
 71
3
 72
8
 73
4
 74
0
 40
0
 40
0
 40
0
 40
0
 40
1
 40
1
 40
1
 40
1
 10
131.111050
 20
162.780490
 30
0.0
 10
137.226820
 20
163.247020
 30
0.0
 10
136.586680
 20
163.432170
 30
0.0
 10
138.390780
 20
160.674980
 30
0.0
  0
SPLINE
  5
1e7
100
AcDbEntity
  8
Capa_1
 62
7
100
AcDbSpline
 70
8
 71
3
 72
8
 73
4
 74
0
 40
0
 40
0
 40
0
 40
0
 40
1
 40
1
 40
1
 40
1
 10
138.390780
 20
160.674980
 30
0.0
 10
139.246250
 20
159.367580
 30
0.0
 10
140.081820
 20
158.296020
 30
0.0
 10
140.247600
 20
158.293730
 30
0.0
  0
SPLINE
  5
1e8
100
AcDbEntity
  8
Capa_1
 62
7
100
AcDbSpline
 70
8
 71
3
 72
8
 73
4
 74
0
 40
0
 40
0
 40
0
 40
0
 40
1
 40
1
 40
1
 40
1
 10
140.247600
 20
158.293730
 30
0.0
 10
140.413380
 20
158.291730
 30
0.0
 10
140.814430
 20
158.504500
 30
0.0
 10
141.138820
 20
158.767180
 30
0.0
  0
LWPOLYLINE
  5
1e9
100
AcDbEntity
  8
Capa_1
 62
7
100
AcDbPolyline
 90
3
 70
0
 10
120.943780
 20
163.755810
 30
0.0
 10
119.453680
 20
160.358500
 30
0.0
 10
120.515520
 20
158.794880
 30
0.0
  0
SPLINE
  5
1ea
100
AcDbEntity
  8
Capa_1
 62
7
100
AcDbSpline
 70
8
 71
3
 72
8
 73
4
 74
0
 40
0
 40
0
 40
0
 40
0
 40
1
 40
1
 40
1
 40
1
 10
140.046020
 20
163.633070
 30
0.0
 10
140.452720
 20
163.968370
 30
0.0
 10
141.576170
 20
164.805640
 30
0.0
 10
142.542570
 20
165.493670
 30
0.0
  0
SPLINE
  5
1eb
100
AcDbEntity
  8
Capa_1
 62
7
100
AcDbSpline
 70
8
 71
3
 72
8
 73
4
 74
0
 40
0
 40
0
 40
0
 40
0
 40
1
 40
1
 40
1
 40
1
 10
142.542570
 20
165.493670
 30
0.0
 10
143.709700
 20
166.324610
 30
0.0
 10
144.250410
 20
166.872960
 30
0.0
 10
144.152980
 20
167.126860
 30
0.0
  0
SPLINE
  5
1ec
100
AcDbEntity
  8
Capa_1
 62
7
100
AcDbSpline
 70
8
 71
3
 72
8
 73
4
 74
0
 40
0
 40
0
 40
0
 40
0
 40
1
 40
1
 40
1
 40
1
 10
144.152980
 20
167.126860
 30
0.0
 10
143.965770
 20
167.614730
 30
0.0
 10
144.946880
 20
168.608330
 30
0.0
 10
145.615820
 20
168.608330
 30
0.0
  0
SPLINE
  5
1ed
100
AcDbEntity
  8
Capa_1
 62
7
100
AcDbSpline
 70
8
 71
3
 72
8
 73
4
 74
0
 40
0
 40
0
 40
0
 40
0
 40
1
 40
1
 40
1
 40
1
 10
145.615820
 20
168.608330
 30
0.0
 10
146.313350
 20
168.608330
 30
0.0
 10
146.957640
 20
167.907730
 30
0.0
 10
146.957640
 20
167.149230
 30
0.0
  0
SPLINE
  5
1ee
100
AcDbEntity
  8
Capa_1
 62
7
100
AcDbSpline
 70
8
 71
3
 72
8
 73
4
 74
0
 40
0
 40
0
 40
0
 40
0
 40
1
 40
1
 40
1
 40
1
 10
146.957640
 20
167.149230
 30
0.0
 10
146.957640
 20
166.369020
 30
0.0
 10
146.001220
 20
165.662260
 30
0.0
 10
145.213090
 20
165.860060
 30
0.0
  0
SPLINE
  5
1ef
100
AcDbEntity
  8
Capa_1
 62
7
100
AcDbSpline
 70
8
 71
3
 72
8
 73
4
 74
0
 40
0
 40
0
 40
0
 40
0
 40
1
 40
1
 40
1
 40
1
 10
145.213090
 20
165.860060
 30
0.0
 10
144.781280
 20
165.968440
 30
0.0
 10
144.053540
 20
165.608040
 30
0.0
 10
142.485410
 20
164.509220
 30
0.0
  0
SPLINE
  5
1f0
100
AcDbEntity
  8
Capa_1
 62
7
100
AcDbSpline
 70
8
 71
3
 72
8
 73
4
 74
0
 40
0
 40
0
 40
0
 40
0
 40
1
 40
1
 40
1
 40
1
 10
142.485410
 20
164.509220
 30
0.0
 10
140.074050
 20
162.819540
 30
0.0
 10
140.125230
 20
163.160990
 30
0.0
 10
141.871630
 20
160.414610
 30
0.0
  0
SPLINE
  5
1f1
100
AcDbEntity
  8
Capa_1
 62
7
100
AcDbSpline
 70
8
 71
3
 72
8
 73
4
 74
0
 40
0
 40
0
 40
0
 40
0
 40
1
 40
1
 40
1
 40
1
 10
141.871630
 20
160.414610
 30
0.0
 10
142.719140
 20
159.081820
 30
0.0
 10
142.754720
 20
158.946240
 30
0.0
 10
142.323020
 20
158.694820
 30
0.0
  0
SPLINE
  5
1f2
100
AcDbEntity
  8
Capa_1
 62
7
100
AcDbSpline
 70
8
 71
3
 72
8
 73
4
 74
0
 40
0
 40
0
 40
0
 40
0
 40
1
 40
1
 40
1
 40
1
 10
142.323020
 20
158.694820
 30
0.0
 10
142.065270
 20
158.544700
 30
0.0
 10
141.570700
 20
158.183750
 30
0.0
 10
141.223980
 20
157.892710
 30
0.0
  0
LWPOLYLINE
  5
1f3
100
AcDbEntity
  8
Capa_1
 62
7
100
AcDbPolyline
 90
5
 70
0
 10
141.138820
 20
158.767180
 30
0.0
 10
141.728620
 20
159.244770
 30
0.0
 10
140.517590
 20
161.134100
 30
0.0
 10
139.306560
 20
163.023420
 30
0.0
 10
140.046020
 20
163.633070
 30
0.0
  0
SPLINE
  5
1f4
100
AcDbEntity
  8
Capa_1
 62
7
100
AcDbSpline
 70
8
 71
3
 72
8
 73
4
 74
0
 40
0
 40
0
 40
0
 40
0
 40
1
 40
1
 40
1
 40
1
 10
132.972580
 20
141.643350
 30
0.0
 10
130.114100
 20
141.467770
 30
0.0
 10
127.402540
 20
141.261220
 30
0.0
 10
126.946880
 20
141.184340
 30
0.0
  0
SPLINE
  5
1f5
100
AcDbEntity
  8
Capa_1
 62
7
100
AcDbSpline
 70
8
 71
3
 72
8
 73
4
 74
0
 40
0
 40
0
 40
0
 40
0
 40
1
 40
1
 40
1
 40
1
 10
126.946880
 20
141.184340
 30
0.0
 10
126.238070
 20
141.064750
 30
0.0
 10
126.023040
 20
141.172140
 30
0.0
 10
125.458130
 20
141.928010
 30
0.0
  0
LWPOLYLINE
  5
1f6
100
AcDbEntity
  8
Capa_1
 62
7
100
AcDbPolyline
 90
7
 70
0
 10
141.223980
 20
157.892710
 30
0.0
 10
140.593580
 20
157.363540
 30
0.0
 10
142.074180
 20
155.160210
 30
0.0
 10
143.554770
 20
152.956880
 30
0.0
 10
140.862300
 20
147.459730
 30
0.0
 10
138.169820
 20
141.962580
 30
0.0
 10
132.972580
 20
141.643350
 30
0.0
  0
SPLINE
  5
1f7
100
AcDbEntity
  8
Capa_1
 62
7
100
AcDbSpline
 70
8
 71
3
 72
8
 73
4
 74
0
 40
0
 40
0
 40
0
 40
0
 40
1
 40
1
 40
1
 40
1
 10
132.642230
 20
142.278280
 30
0.0
 10
135.464510
 20
142.492280
 30
0.0
 10
137.793260
 20
142.699780
 30
0.0
 10
137.817220
 20
142.739410
 30
0.0
  0
SPLINE
  5
1f8
100
AcDbEntity
  8
Capa_1
 62
7
100
AcDbSpline
 70
8
 71
3
 72
8
 73
4
 74
0
 40
0
 40
0
 40
0
 40
0
 40
1
 40
1
 40
1
 40
1
 10
137.817220
 20
142.739410
 30
0.0
 10
137.841220
 20
142.779010
 30
0.0
 10
138.971330
 20
145.091040
 30
0.0
 10
140.328660
 20
147.877200
 30
0.0
  0
LWPOLYLINE
  5
1f9
100
AcDbEntity
  8
Capa_1
 62
7
100
AcDbPolyline
 90
1
 70
1
 10
125.458130
 20
141.928010
 30
0.0
  0
SPLINE
  5
1fa
100
AcDbEntity
  8
Capa_1
 62
7
100
AcDbSpline
 70
8
 71
3
 72
8
 73
4
 74
0
 40
0
 40
0
 40
0
 40
0
 40
1
 40
1
 40
1
 40
1
 10
139.814650
 20
157.402200
 30
0.0
 10
138.174610
 20
159.854790
 30
0.0
 10
136.699850
 20
162.005510
 30
0.0
 10
136.537410
 20
162.181570
 30
0.0
  0
SPLINE
  5
1fb
100
AcDbEntity
  8
Capa_1
 62
7
100
AcDbSpline
 70
8
 71
3
 72
8
 73
4
 74
0
 40
0
 40
0
 40
0
 40
0
 40
1
 40
1
 40
1
 40
1
 10
136.537410
 20
162.181570
 30
0.0
 10
136.306490
 20
162.431850
 30
0.0
 10
135.145270
 20
162.418260
 30
0.0
 10
131.214970
 20
162.119270
 30
0.0
  0
SPLINE
  5
1fc
100
AcDbEntity
  8
Capa_1
 62
7
100
AcDbSpline
 70
8
 71
3
 72
8
 73
4
 74
0
 40
0
 40
0
 40
0
 40
0
 40
1
 40
1
 40
1
 40
1
 10
131.214970
 20
162.119270
 30
0.0
 10
128.450070
 20
161.908950
 30
0.0
 10
125.912220
 20
161.735130
 30
0.0
 10
125.575290
 20
161.733010
 30
0.0
  0
SPLINE
  5
1fd
100
AcDbEntity
  8
Capa_1
 62
7
100
AcDbSpline
 70
8
 71
3
 72
8
 73
4
 74
0
 40
0
 40
0
 40
0
 40
0
 40
1
 40
1
 40
1
 40
1
 10
125.575290
 20
161.733010
 30
0.0
 10
125.041830
 20
161.730010
 30
0.0
 10
124.639880
 20
161.059990
 30
0.0
 10
122.463700
 20
156.548950
 30
0.0
  0
SPLINE
  5
1fe
100
AcDbEntity
  8
Capa_1
 62
7
100
AcDbSpline
 70
8
 71
3
 72
8
 73
4
 74
0
 40
0
 40
0
 40
0
 40
0
 40
1
 40
1
 40
1
 40
1
 10
122.463700
 20
156.548950
 30
0.0
 10
121.089250
 20
153.699840
 30
0.0
 10
120.047760
 20
151.229290
 30
0.0
 10
120.149290
 20
151.058850
 30
0.0
  0
SPLINE
  5
1ff
100
AcDbEntity
  8
Capa_1
 62
7
100
AcDbSpline
 70
8
 71
3
 72
8
 73
4
 74
0
 40
0
 40
0
 40
0
 40
0
 40
1
 40
1
 40
1
 40
1
 10
120.149290
 20
151.058850
 30
0.0
 10
120.250820
 20
150.888400
 30
0.0
 10
121.688980
 20
148.754650
 30
0.0
 10
123.345210
 20
146.317180
 30
0.0
  0
SPLINE
  5
200
100
AcDbEntity
  8
Capa_1
 62
7
100
AcDbSpline
 70
8
 71
3
 72
8
 73
4
 74
0
 40
0
 40
0
 40
0
 40
0
 40
1
 40
1
 40
1
 40
1
 10
123.345210
 20
146.317180
 30
0.0
 10
125.698840
 20
142.853330
 30
0.0
 10
126.482580
 20
141.885820
 30
0.0
 10
126.933670
 20
141.887300
 30
0.0
  0
SPLINE
  5
201
100
AcDbEntity
  8
Capa_1
 62
7
100
AcDbSpline
 70
8
 71
3
 72
8
 73
4
 74
0
 40
0
 40
0
 40
0
 40
0
 40
1
 40
1
 40
1
 40
1
 10
126.933670
 20
141.887300
 30
0.0
 10
127.251090
 20
141.888300
 30
0.0
 10
129.819940
 20
142.064280
 30
0.0
 10
132.642230
 20
142.278270
 30
0.0
  0
LWPOLYLINE
  5
202
100
AcDbEntity
  8
Capa_1
 62
7
100
AcDbPolyline
 90
3
 70
0
 10
140.328660
 20
147.877200
 30
0.0
 10
142.796540
 20
152.942940
 30
0.0
 10
139.814650
 20
157.402200
 30
0.0
  0
SPLINE
  5
203
100
AcDbEntity
  8
Capa_1
 62
7
100
AcDbSpline
 70
8
 71
3
 72
8
 73
4
 74
0
 40
0
 40
0
 40
0
 40
0
 40
1
 40
1
 40
1
 40
1
 10
115.472260
 20
166.491670
 30
0.0
 10
115.472260
 20
166.844450
 30
0.0
 10
115.295870
 20
167.020830
 30
0.0
 10
114.943090
 20
167.020830
 30
0.0
  0
SPLINE
  5
204
100
AcDbEntity
  8
Capa_1
 62
7
100
AcDbSpline
 70
8
 71
3
 72
8
 73
4
 74
0
 40
0
 40
0
 40
0
 40
0
 40
1
 40
1
 40
1
 40
1
 10
114.943090
 20
167.020830
 30
0.0
 10
114.590320
 20
167.020830
 30
0.0
 10
114.413930
 20
166.844450
 30
0.0
 10
114.413930
 20
166.491670
 30
0.0
  0
SPLINE
  5
205
100
AcDbEntity
  8
Capa_1
 62
7
100
AcDbSpline
 70
8
 71
3
 72
8
 73
4
 74
0
 40
0
 40
0
 40
0
 40
0
 40
1
 40
1
 40
1
 40
1
 10
114.413930
 20
166.491670
 30
0.0
 10
114.413930
 20
166.138890
 30
0.0
 10
114.590320
 20
165.962500
 30
0.0
 10
114.943090
 20
165.962500
 30
0.0
  0
SPLINE
  5
206
100
AcDbEntity
  8
Capa_1
 62
7
100
AcDbSpline
 70
8
 71
3
 72
8
 73
4
 74
0
 40
0
 40
0
 40
0
 40
0
 40
1
 40
1
 40
1
 40
1
 10
114.943090
 20
165.962500
 30
0.0
 10
115.295870
 20
165.962500
 30
0.0
 10
115.472260
 20
166.138890
 30
0.0
 10
115.472260
 20
166.491670
 30
0.0
  0
LWPOLYLINE
  5
207
100
AcDbEntity
  8
Capa_1
 62
7
100
AcDbPolyline
 90
1
 70
1
 10
132.642230
 20
142.278270
 30
0.0
  0
SPLINE
  5
208
100
AcDbEntity
  8
Capa_1
 62
7
100
AcDbSpline
 70
8
 71
3
 72
8
 73
4
 74
0
 40
0
 40
0
 40
0
 40
0
 40
1
 40
1
 40
1
 40
1
 10
146.116190
 20
167.240000
 30
0.0
 10
146.179090
 20
167.667230
 30
0.0
 10
146.064290
 20
167.814580
 30
0.0
 10
145.668780
 20
167.814580
 30
0.0
  0
SPLINE
  5
209
100
AcDbEntity
  8
Capa_1
 62
7
100
AcDbSpline
 70
8
 71
3
 72
8
 73
4
 74
0
 40
0
 40
0
 40
0
 40
0
 40
1
 40
1
 40
1
 40
1
 10
145.668780
 20
167.814580
 30
0.0
 10
144.972420
 20
167.814580
 30
0.0
 10
144.711800
 20
167.363030
 30
0.0
 10
145.122530
 20
166.868140
 30
0.0
  0
SPLINE
  5
20a
100
AcDbEntity
  8
Capa_1
 62
7
100
AcDbSpline
 70
8
 71
3
 72
8
 73
4
 74
0
 40
0
 40
0
 40
0
 40
0
 40
1
 40
1
 40
1
 40
1
 10
145.122530
 20
166.868140
 30
0.0
 10
145.552170
 20
166.350450
 30
0.0
 10
146.010530
 20
166.521990
 30
0.0
 10
146.116190
 20
167.240000
 30
0.0
  0
LWPOLYLINE
  5
20b
100
AcDbEntity
  8
Capa_1
 62
7
100
AcDbPolyline
 90
1
 70
1
 10
115.472260
 20
166.491670
 30
0.0
  0
SPLINE
  5
20c
100
AcDbEntity
  8
Capa_1
 62
7
100
AcDbSpline
 70
8
 71
3
 72
8
 73
4
 74
0
 40
0
 40
0
 40
0
 40
0
 40
1
 40
1
 40
1
 40
1
 10
136.327750
 20
174.518040
 30
0.0
 10
136.431790
 20
175.054500
 30
0.0
 10
135.657910
 20
175.406060
 30
0.0
 10
135.256520
 20
175.004680
 30
0.0
  0
SPLINE
  5
20d
100
AcDbEntity
  8
Capa_1
 62
7
100
AcDbSpline
 70
8
 71
3
 72
8
 73
4
 74
0
 40
0
 40
0
 40
0
 40
0
 40
1
 40
1
 40
1
 40
1
 10
135.256520
 20
175.004680
 30
0.0
 10
135.048240
 20
174.796400
 30
0.0
 10
135.064230
 20
174.600250
 30
0.0
 10
135.314020
 20
174.299280
 30
0.0
  0
SPLINE
  5
20e
100
AcDbEntity
  8
Capa_1
 62
7
100
AcDbSpline
 70
8
 71
3
 72
8
 73
4
 74
0
 40
0
 40
0
 40
0
 40
0
 40
1
 40
1
 40
1
 40
1
 10
135.314020
 20
174.299280
 30
0.0
 10
135.727190
 20
173.801440
 30
0.0
 10
136.208940
 20
173.905400
 30
0.0
 10
136.327750
 20
174.518040
 30
0.0
  0
LWPOLYLINE
  5
20f
100
AcDbEntity
  8
Capa_1
 62
7
100
AcDbPolyline
 90
1
 70
1
 10
146.116190
 20
167.240000
 30
0.0
  0
SPLINE
  5
210
100
AcDbEntity
  8
Capa_1
 62
7
100
AcDbSpline
 70
8
 71
3
 72
8
 73
4
 74
0
 40
0
 40
0
 40
0
 40
0
 40
1
 40
1
 40
1
 40
1
 10
121.245350
 20
179.786980
 30
0.0
 10
121.198850
 20
180.114400
 30
0.0
 10
120.982210
 20
180.382290
 30
0.0
 10
120.763930
 20
180.382290
 30
0.0
  0
SPLINE
  5
211
100
AcDbEntity
  8
Capa_1
 62
7
100
AcDbSpline
 70
8
 71
3
 72
8
 73
4
 74
0
 40
0
 40
0
 40
0
 40
0
 40
1
 40
1
 40
1
 40
1
 10
120.763930
 20
180.382290
 30
0.0
 10
120.545650
 20
180.382290
 30
0.0
 10
120.329010
 20
180.114400
 30
0.0
 10
120.282500
 20
179.786980
 30
0.0
  0
SPLINE
  5
212
100
AcDbEntity
  8
Capa_1
 62
7
100
AcDbSpline
 70
8
 71
3
 72
8
 73
4
 74
0
 40
0
 40
0
 40
0
 40
0
 40
1
 40
1
 40
1
 40
1
 10
120.282500
 20
179.786980
 30
0.0
 10
120.217400
 20
179.328800
 30
0.0
 10
120.328300
 20
179.191670
 30
0.0
 10
120.763930
 20
179.191670
 30
0.0
  0
SPLINE
  5
213
100
AcDbEntity
  8
Capa_1
 62
7
100
AcDbSpline
 70
8
 71
3
 72
8
 73
4
 74
0
 40
0
 40
0
 40
0
 40
0
 40
1
 40
1
 40
1
 40
1
 10
120.763930
 20
179.191670
 30
0.0
 10
121.199520
 20
179.191670
 30
0.0
 10
121.310420
 20
179.328800
 30
0.0
 10
121.245350
 20
179.786980
 30
0.0
  0
LWPOLYLINE
  5
214
100
AcDbEntity
  8
Capa_1
 62
7
100
AcDbPolyline
 90
1
 70
1
 10
136.327750
 20
174.518040
 30
0.0
  0
LWPOLYLINE
  5
215
100
AcDbEntity
  8
Capa_1
 62
7
100
AcDbPolyline
 90
1
 70
1
 10
121.245350
 20
179.786980
 30
0.0
  0
ENDSEC
  0
SECTION
  2
OBJECTS
  0
DICTIONARY
  5
C
330
0
100
AcDbDictionary
  3
ACAD_GROUP
350
D
  3
ACAD_MLINESTYLE
350
17
  0
DICTIONARY
  5
D
330
C
100
AcDbDictionary
  0
DICTIONARY
  5
1A
330
C
100
AcDbDictionary
  0
DICTIONARY
  5
17
330
C
100
AcDbDictionary
  3
STANDARD
350
18
  0
DICTIONARY
  5
19
330
C
100
AcDbDictionary
  0
ENDSEC
  0
EOF
